<?xml version="1.0" encoding="UTF-8" standalone="no"?>
<!-- Created with Inkscape (http://www.inkscape.org/) -->

<svg
   width="120"
   height="120"
   viewBox="0 0 120 120"
   version="1.1"
   id="svg1"
   xml:space="preserve"
   inkscape:version="1.4.3 (0d15f75, 2025-12-25)"
   sodipodi:docname="logo-icon.svg"
   xmlns:inkscape="http://www.inkscape.org/namespaces/inkscape"
   xmlns:sodipodi="http://sodipodi.sourceforge.net/DTD/sodipodi-0.dtd"
   xmlns="http://www.w3.org/2000/svg"
   xmlns:svg="http://www.w3.org/2000/svg"><sodipodi:namedview
     id="namedview1"
     pagecolor="#ffffff"
     bordercolor="#000000"
     borderopacity="0.25"
     inkscape:showpageshadow="2"
     inkscape:pageopacity="0.0"
     inkscape:pagecheckerboard="0"
     inkscape:deskcolor="#d1d1d1"
     inkscape:document-units="px"
     inkscape:zoom="4"
     inkscape:cx="82.375"
     inkscape:cy="58.625"
     inkscape:window-width="1920"
     inkscape:window-height="1009"
     inkscape:window-x="-8"
     inkscape:window-y="-8"
     inkscape:window-maximized="1"
     inkscape:current-layer="layer1" /><defs
     id="defs1" /><g
     inkscape:label="Calque 1"
     inkscape:groupmode="layer"
     id="layer1"><path
       style="fill:#343434;fill-opacity:1;stroke-width:4.22059"
       d="m 37.83016,110.59929 c -2.169778,-3.90886 -4.561167,-8.22823 -5.314202,-9.59861 C 25.499525,88.232139 15.886616,70.762157 15.104253,69.357591 8.728946,57.912029 1.1060748,43.956827 1.1060748,43.731074 c 0,-0.157278 3.4498377,-0.285928 7.6663013,-0.285928 h 7.6663079 v -1.183143 c 0,-1.280262 1.025132,-4.502827 2.31847,-7.288237 1.251963,-2.696308 6.460127,-7.61324 9.799242,-9.251284 2.776647,-1.362116 3.349506,-1.455728 8.902802,-1.454792 5.726507,9.77e-4 6.043156,0.05766 9.005051,1.612453 1.68841,0.886292 3.832209,2.285837 4.763999,3.110106 0.931785,0.824264 1.838551,1.498668 2.015036,1.498668 0.176445,0 0.258372,-2.746972 0.181984,-6.10438 L 53.2864,18.280162 33.626035,18.149865 13.965671,18.019568 v 6.732991 6.732989 H 7.2885814 0.61147506 V 18.280162 5.0747751 H 59.963524 119.31556 V 18.280162 31.485547 h -6.6771 -6.67711 V 24.75234 18.019343 l -19.66036,0.130298 -19.660367,0.130297 -0.138868,6.104372 c -0.0764,3.357406 -0.0026,6.10438 0.164071,6.10438 0.166632,0 1.246221,-0.778764 2.399131,-1.730579 1.152908,-0.951822 3.416069,-2.353333 5.029239,-3.114478 2.673825,-1.261588 3.435751,-1.383855 8.620955,-1.383404 5.470116,4.79e-4 5.81498,0.06475 9.006614,1.678096 3.611634,1.825668 8.082112,6.102024 9.447625,9.037398 1.29167,2.776609 2.31898,6.00434 2.31898,7.286057 v 1.183141 h 7.6663 c 4.21648,0 7.66632,0.128188 7.66632,0.28484 0,0.156666 -4.03592,7.612735 -8.96868,16.569027 -4.93279,8.956294 -9.821,17.853864 -10.86271,19.772387 -1.041708,1.91852 -6.099615,11.112462 -11.239789,20.430985 l -9.34577,16.94276 -18.314403,0.13053 -18.314406,0.13053 z M 53.533712,97.98138 v -6.199553 h 6.429806 6.429805 v 6.145903 c 0,3.38025 0.09972,6.24638 0.221635,6.36918 0.121903,0.12277 1.073109,0.14137 2.113844,0.041 2.069418,-0.1988 1.334007,0.91796 10.71155,-16.26648 1.055167,-1.9336 4.45001,-8.080794 7.544082,-13.660426 3.094084,-5.579618 5.282848,-10.012256 4.863932,-9.850297 -6.42294,2.483233 -12.989365,2.401858 -18.288781,-0.226652 -1.849809,-0.917498 -4.138805,-2.405075 -5.086649,-3.305722 -0.947841,-0.900646 -1.803502,-1.63754 -1.90146,-1.63754 -0.09794,0 -0.178109,2.130301 -0.178109,4.734007 v 4.734004 H 59.963545 53.533744 V 64.37398 c 0,-2.466671 -0.109362,-4.48485 -0.243026,-4.48485 -0.133653,0 -1.302152,0.818769 -2.596649,1.819497 -3.869104,2.991048 -7.224133,4.250364 -11.998336,4.503582 -3.96361,0.210218 -5.062099,0.03822 -10.314012,-1.614995 l -1.163895,-0.366365 1.202826,1.940258 c 0.66155,1.067136 1.986226,3.397826 2.943724,5.17931 0.957499,1.781479 4.032479,7.387542 6.833295,12.457912 2.800819,5.070374 5.709517,10.340064 6.463778,11.710443 4.766823,8.660538 4.617394,8.456858 6.418682,8.748708 0.941441,0.15255 1.878633,0.19538 2.08266,0.0952 0.203998,-0.1002 0.37093,-2.97195 0.37093,-6.3817 z M 43.736561,60.008855 c 3.24076,-1.444311 6.573623,-4.721349 8.157818,-8.021152 1.139969,-2.374504 1.34459,-3.432081 1.315361,-6.798466 -0.04219,-4.85449 -1.143503,-7.680172 -4.332167,-11.114724 -3.077676,-3.315 -6.114294,-4.757291 -10.515423,-4.994462 -6.579496,-0.354559 -11.782484,2.562793 -14.954762,8.385284 -1.631152,2.99386 -1.765043,3.559699 -1.7687,7.474743 -0.0045,5.031379 0.985881,7.64414 4.251326,11.213343 3.425608,3.74427 7.270335,5.321463 12.319056,5.053559 1.831053,-0.09716 4.218138,-0.614582 5.527491,-1.198125 z m 45.454928,-0.226252 c 3.315613,-1.547357 5.990026,-4.149091 7.733681,-7.523522 1.156377,-2.23789 1.33802,-3.187181 1.352803,-7.06984 0.01598,-4.224188 -0.08581,-4.673097 -1.752996,-7.723902 -2.991967,-5.475012 -7.964048,-8.471382 -14.05714,-8.471382 -4.249779,0 -7.232785,1.169161 -10.382257,4.069229 -3.743562,3.447109 -5.350165,6.984061 -5.394885,11.876898 -0.04963,5.415428 1.759223,9.327467 5.888834,12.736799 4.71816,3.89522 11.056009,4.698604 16.61196,2.10572 z"
       id="path1"
       sodipodi:nodetypes="cccsscssssssscccccccccccccccccccccssssssscsssssccccccccsscsscsssscccssssscssssssccsscssscssssscssscss" /><circle
       style="fill:#fc8802;fill-opacity:1;stroke-width:3.49005"
       id="path2"
       cx="37.555885"
       cy="44.757637"
       r="7.3860321" /><ellipse
       style="fill:#ffffff;fill-opacity:1;stroke-width:2.09125"
       id="path2-16"
       cx="39.676426"
       cy="42.002621"
       rx="4.5222425"
       ry="4.3313231" /><circle
       style="fill:#000000;fill-opacity:0;stroke-width:3.49005"
       id="path2-14"
       cx="45.574539"
       cy="37.822746"
       r="7.3860321" /><circle
       style="fill:#fc8802;fill-opacity:1;stroke-width:3.49005"
       id="path2-1"
       cx="83.348892"
       cy="44.758038"
       r="7.3860321" /><circle
       style="fill:#fc8802;fill-opacity:1;stroke-width:1.29631"
       id="path2-1-1"
       cx="75.966064"
       cy="77.370262"
       r="2.7433832" /><ellipse
       style="fill:#ffffff;fill-opacity:1;stroke-width:2.09078"
       id="path2-1-2"
       cx="85.835655"
       cy="42.096798"
       rx="4.5604262"
       ry="4.293139" /><path
       style="fill:#fc8802;fill-opacity:1;stroke-width:4.22059"
       d="m 43.611659,74.716444 c 2.143267,2.209182 2.143267,2.275152 2.143267,2.275152 l 1.780561,1.483792 1.285959,0.956215 0.923254,0.593543 1.28596,0.725395 1.384884,0.758393 1.582723,0.461637 1.252982,0.560557 c 0,0 4.737044,0.560557 7.056304,0.165034 0.521191,-0.08888 0.99211,-0.366194 1.483799,-0.560557 0.508702,-0.201107 1.021497,-0.394262 1.516775,-0.626502 0.618754,-0.290146 1.813536,-0.956217 1.813536,-0.956217 l 1.516772,-0.923254 1.648672,-1.285974 3.627071,4.121662 -1.6157,1.384901 -1.285962,0.791361 -1.9784,1.055149 -2.670844,1.154079 -2.901653,1.121068 -8.375232,-0.03366 -3.000576,-0.923254 -1.978404,-0.824327 -2.242185,-1.31893 -2.275166,-1.253013 -3.000575,-2.538306 -2.176236,-2.044369 -0.890285,-1.055146 z"
       id="path8"
       sodipodi:nodetypes="cccccccccssscccccccccccccccccc" /></g></svg>
