<?xml version="1.0" encoding="UTF-8" standalone="no"?>
<!-- Created with Inkscape (http://www.inkscape.org/) -->

<svg
   width="148mm"
   height="210mm"
   viewBox="0 0 559.37006 793.70081"
   version="1.1"
   id="svg1"
   xml:space="preserve"
   inkscape:version="1.4.3 (0d15f75, 2025-12-25)"
   sodipodi:docname="WIP3.svg"
   xmlns:inkscape="http://www.inkscape.org/namespaces/inkscape"
   xmlns:sodipodi="http://sodipodi.sourceforge.net/DTD/sodipodi-0.dtd"
   xmlns="http://www.w3.org/2000/svg"
   xmlns:svg="http://www.w3.org/2000/svg"><sodipodi:namedview
     id="namedview1"
     pagecolor="#ffffff"
     bordercolor="#000000"
     borderopacity="0.25"
     inkscape:showpageshadow="2"
     inkscape:pageopacity="0.0"
     inkscape:pagecheckerboard="0"
     inkscape:deskcolor="#d1d1d1"
     inkscape:document-units="mm"
     inkscape:zoom="0.68957344"
     inkscape:cx="309.61169"
     inkscape:cy="392.27149"
     inkscape:window-width="1920"
     inkscape:window-height="1009"
     inkscape:window-x="-8"
     inkscape:window-y="-8"
     inkscape:window-maximized="1"
     inkscape:current-layer="layer1" /><defs
     id="defs1" /><g
     inkscape:label="Calque 1"
     inkscape:groupmode="layer"
     id="layer1"
     transform="matrix(1.1047827,0,0,1.1047827,-43.412015,-71.229924)"><g
       id="g5"
       transform="matrix(0.87928246,0,0,0.87928246,41.301251,134.9954)"><path
         style="fill:#343434;fill-opacity:1;stroke-width:7.7972"
         d="m 244.17593,304.79704 c -4.00851,-7.22131 -8.4264,-15.201 -9.81756,-17.73267 -12.96232,-23.58886 -30.72139,-55.86326 -32.16676,-58.45809 -11.77785,-21.14475 -25.86051,-46.92588 -25.86051,-47.34296 0,-0.29053 6.3733,-0.52821 14.1629,-0.52821 h 14.16287 v -2.18577 c 0,-2.36517 1.89386,-8.3186 4.2832,-13.46443 2.31291,-4.98121 11.93456,-14.06484 18.10332,-17.09102 5.12963,-2.51639 6.18793,-2.68934 16.44721,-2.6876 10.57926,0.003 11.16425,0.10659 16.63612,2.97887 3.11921,1.63736 7.0797,4.22291 8.80112,5.74567 1.72137,1.52277 3.39656,2.76868 3.72261,2.76868 0.32597,0 0.47732,-5.07483 0.3362,-11.27736 l -0.25655,-11.27735 -36.32096,-0.24072 -36.32096,-0.24071 v 12.43868 12.43865 h -12.33539 -12.33541 v -24.3959 -24.39589 h 109.64817 109.64816 v 24.39589 24.3959 H 382.3783 370.04287 v -12.43906 -12.43868 l -36.32095,0.24072 -36.32097,0.24071 -0.25654,11.27734 c -0.14115,6.20254 -0.006,11.27735 0.30313,11.27735 0.30782,0 2.30227,-1.43869 4.43219,-3.1971 2.12991,-1.75841 6.31091,-4.34759 9.29112,-5.75375 4.93967,-2.33069 6.34728,-2.55656 15.92652,-2.55573 10.10561,8.9e-4 10.7427,0.11971 16.639,3.10016 6.67221,3.37277 14.93107,11.27299 17.45374,16.69585 2.38625,5.12957 4.28413,11.09254 4.28413,13.46042 v 2.18576 h 14.16288 c 7.7896,0 14.16291,0.23682 14.16291,0.52622 0,0.28944 -7.45603,14.06392 -16.56892,30.60996 -9.11294,16.54604 -18.14352,32.98358 -20.068,36.5279 -1.92446,3.54431 -11.26855,20.5294 -20.76461,37.74462 l -17.26556,31.3004 -33.83441,0.24115 -33.8344,0.24114 z m 29.01105,-23.31058 v -11.45318 h 11.87857 11.87853 v 11.35406 c 0,6.24474 0.1842,11.53969 0.40947,11.76655 0.2252,0.22681 1.98248,0.26117 3.90516,0.0757 3.82308,-0.36728 2.46446,1.69585 19.78872,-30.05103 1.94935,-3.57218 8.22105,-14.92862 13.9371,-25.23656 5.71607,-10.30789 9.75963,-18.49683 8.98573,-18.19761 -11.86587,4.58756 -23.99682,4.43721 -33.78705,-0.41875 -3.41738,-1.69499 -7.64613,-4.44318 -9.39719,-6.10705 -1.75106,-1.66386 -3.33183,-3.02523 -3.5128,-3.02523 -0.18085,0 -0.32904,3.93557 -0.32904,8.7457 v 8.74569 h -11.87857 -11.87857 v -8.28535 c 0,-4.55697 -0.20204,-8.2854 -0.44896,-8.2854 -0.24693,0 -2.40563,1.51262 -4.79711,3.36138 -7.14786,5.5257 -13.346,7.8522 -22.16597,8.32001 -7.32245,0.38837 -9.35182,0.0706 -19.05432,-2.98358 l -2.1502,-0.67682 2.22213,3.58448 c 1.22215,1.97143 3.6694,6.27719 5.4383,9.56836 1.76889,3.29114 7.44967,13.64788 12.62397,23.015 5.17428,9.3671 10.54787,19.10243 11.94131,21.63409 8.80632,15.99966 8.53025,15.62337 11.858,16.16256 1.73924,0.28182 3.47061,0.36094 3.84755,0.17586 0.37688,-0.18511 0.68527,-5.49044 0.68527,-11.78968 z m -18.09944,-70.15123 c 5.98704,-2.66824 12.14422,-8.7223 15.07091,-14.81845 2.10599,-4.38668 2.48402,-6.34047 2.43003,-12.55959 -0.078,-8.96828 -2.11254,-14.18851 -8.00335,-20.53359 -5.68575,-6.12419 -11.29565,-8.78871 -19.42639,-9.22686 -12.1551,-0.65504 -21.7672,4.73454 -27.62774,15.49112 -3.01341,5.53092 -3.26077,6.57627 -3.26753,13.80902 -0.008,9.29507 1.82134,14.12194 7.85398,20.71574 6.32854,6.91725 13.43137,9.83098 22.75848,9.33606 3.38272,-0.17957 7.79269,-1.13538 10.21161,-2.21345 z m 83.97436,-0.41798 c 6.12533,-2.8586 11.06608,-7.66512 14.28735,-13.8991 2.13633,-4.13433 2.47188,-5.88806 2.49919,-13.06096 0.0296,-7.80386 -0.15852,-8.63319 -3.23851,-14.2693 -5.52743,-10.11465 -14.71295,-15.65021 -25.96946,-15.65021 -7.85111,0 -13.36198,2.15995 -19.18038,7.5176 -6.91594,6.36823 -9.88402,12.90248 -9.96663,21.9416 -0.0917,10.00457 3.25003,17.23175 10.87915,23.53023 8.71642,7.1961 20.4251,8.6803 30.68929,3.89014 z"
         id="path1"
         sodipodi:nodetypes="cccsscssssssscccccccccccccccccccccssssssscsssssccccccccsscsscsssscccssssscssssssccsscssscssssscssscss" /><circle
         style="fill:#fc8802;fill-opacity:1;stroke-width:6.44759"
         id="path2"
         cx="243.14282"
         cy="195.13548"
         r="13.645106" /><ellipse
         style="fill:#ffffff;fill-opacity:1;stroke-width:3.86342"
         id="path2-16"
         cx="247.06033"
         cy="190.04584"
         rx="8.3544827"
         ry="8.0017748" /><circle
         style="fill:#000000;fill-opacity:0;stroke-width:6.44759"
         id="path2-14"
         cx="258.483"
         cy="170.34818"
         r="13.645106" /><circle
         style="fill:#fc8802;fill-opacity:1;stroke-width:6.44759"
         id="path2-1"
         cx="327.70981"
         cy="195.07169"
         r="13.645106" /><circle
         style="fill:#fc8802;fill-opacity:1;stroke-width:2.39483"
         id="path2-1-1"
         cx="314.62897"
         cy="243.40904"
         r="5.068182" /><ellipse
         style="fill:#ffffff;fill-opacity:1;stroke-width:3.86255"
         id="path2-1-2"
         cx="332.30389"
         cy="190.1553"
         rx="8.425024"
         ry="7.9312325" /><path
         style="fill:#fc8802;fill-opacity:1;stroke-width:7.7972"
         d="m 254.85678,238.50633 c 3.95953,4.0813 3.95953,4.20318 3.95953,4.20318 l 3.28944,2.74118 2.37571,1.76652 1.70563,1.09654 2.37571,1.34009 2.55845,1.40108 2.92397,0.85284 2.31478,1.03558 c 0,0 8.75131,1.03557 13.03595,0.30489 0.96286,-0.16423 1.83285,-0.67651 2.74121,-1.0356 0.93978,-0.37151 1.88714,-0.72835 2.80213,-1.1574 1.14308,-0.53601 3.35034,-1.76652 3.35034,-1.76652 l 2.80214,-1.70566 3.04578,-2.37573 6.70072,7.61444 -2.98486,2.55851 -2.37572,1.46197 -3.65493,1.94929 -4.93419,2.13208 -5.36057,2.07109 -15.47256,-0.0622 -5.54333,-1.70567 -3.65495,-1.52285 -4.14225,-2.43663 -4.20318,-2.31485 -5.54334,-4.68931 -4.02041,-3.77681 -1.64474,-1.9493 z"
         id="path8"
         sodipodi:nodetypes="cccccccccssscccccccccccccccccc" /></g><rect
       style="fill:none;stroke-width:0.879283"
       id="rect2"
       width="25.886648"
       height="92.392181"
       x="278.70691"
       y="411.67075" /><path
       style="fill:#343434;fill-opacity:1;stroke-width:0.879283"
       d="m 222.79582,778.34765 c -1.31131,-0.91848 -1.83026,-2.07001 -1.64541,-3.65107 0.22153,-1.89465 2.0073,-3.36934 9.94213,-8.21021 5.31966,-3.24539 10.4953,-6.48819 11.50142,-7.20622 l 1.82932,-1.30551 -3.3108,-12.91027 c -1.82094,-7.10065 -3.53198,-13.13146 -3.80231,-13.40179 -1.39987,-1.39986 -4.07312,3.22213 -5.40536,9.34576 -0.8031,3.69147 -2.34851,10.4707 -3.43423,15.06496 l -1.97403,8.35317 -5.82607,0.58591 c -3.20434,0.32225 -6.91836,0.28544 -8.25339,-0.0817 -3.38687,-0.93167 -4.06606,3.16373 8.09328,-48.80222 3.16035,-13.50661 5.74611,-25.59682 5.74611,-26.86712 0,-1.27028 -2.54677,-12.57516 -5.65951,-25.12196 -17.47181,-70.42541 -18.34677,-74.28686 -17.33541,-76.50654 1.22364,-2.68559 3.50056,-2.74468 11.8674,-0.30793 10.55336,3.07355 23.05847,6.59158 40.58349,11.41723 3.38523,0.93216 11.68985,3.2783 18.45469,5.21366 6.76483,1.93539 12.60107,3.51885 12.96941,3.51885 0.36835,0 0.66971,-6.13134 0.66971,-13.62519 v -13.62521 l -101.77694,-0.22349 -101.776954,-0.2235 -0.25166,-8.57301 -0.25166,-8.573 h 23.772464 23.77247 v -5.70147 c 0,-5.03445 0.29504,-6.03166 2.52189,-8.52394 2.25298,-2.52151 3.13189,-2.86133 8.24259,-3.18675 l 5.72068,-0.36427 1.08069,-3.64155 c 0.59438,-2.00287 1.48395,-4.13617 1.97684,-4.74067 1.02653,-1.25904 16.20124,-1.54546 18.09945,-0.34164 0.63356,0.4018 1.6643,2.47304 2.29053,4.60276 0.80897,2.75121 1.65981,3.95034 2.93895,4.14198 1.48802,0.22295 1.9054,-0.35208 2.40593,-3.31473 0.94717,-5.60623 2.02547,-6.18747 11.4787,-6.18747 9.16425,0 10.06322,0.53869 11.37169,6.81443 0.91019,4.36549 3.63279,3.87738 4.90458,-0.87929 1.53581,-5.74416 1.88587,-5.93514 10.87856,-5.93514 9.31644,0 10.7023,0.67517 11.73113,5.71532 l 0.71793,3.51713 h 15.26029 15.26029 l 1.66107,-5.11603 c 1.62823,-5.01488 1.62825,-5.17135 8.8e-4,-7.91354 -0.91296,-1.53862 -2.58925,-5.1517 -3.72508,-8.02904 l -2.06514,-5.23152 -1.06135,2.60106 c -1.75717,4.30636 -4.08271,5.71588 -11.01568,6.67663 -7.46634,1.03469 -9.97409,0.7673 -16.59246,-1.76912 -5.97858,-2.29122 -8.36749,-4.91875 -9.059,-9.9638 -0.29398,-2.14486 -1.76328,-6.23566 -3.26511,-9.09068 -1.99189,-3.78663 -2.66698,-6.15029 -2.49543,-8.737 0.2713,-4.09086 0.95106,-3.96137 -10.24002,-1.95068 -19.619,3.52491 -44.30409,5.17634 -47.97869,3.20975 -1.03397,-0.55337 -1.70076,-1.83691 -1.70076,-3.27389 0,-6.94114 31.43601,-28.27713 66.6107,-45.20945 7.86136,-3.78429 14.49326,-6.88052 14.73756,-6.88052 0.2443,0 2.12149,-0.76615 4.17155,-1.70256 9.87847,-4.5122 31.79348,-13.1438 42.63561,-16.79276 l 9.01265,-3.03324 c 0,-16.96122 5.85026,-45.89392 9.23246,-0.0784 l 3.51713,0.77508 c 6.45366,1.4222 23.67515,5.6793 29.01632,7.17277 17.3127,4.84084 22.34148,6.30005 33.85238,9.823 23.45782,7.17936 54.31092,18.55822 60.45067,22.29467 3.16942,1.9288 3.66067,4.30061 1.31892,6.36788 -3.54819,3.13232 -27.03872,13.49981 -39.34789,17.3661 -4.75153,1.49245 -5.28197,2.15659 -3.61889,4.53097 2.03497,2.90533 1.71018,7.67249 -0.80046,11.74875 -1.30495,2.11872 -2.16806,4.85115 -2.17077,6.87226 -0.007,5.09044 -1.3094,6.61758 -8.52762,9.99789 -6.49763,3.04288 -6.78007,3.09211 -14.19358,2.47457 -9.35897,-0.7796 -11.1381,-1.43726 -13.24048,-4.89434 l -1.66597,-2.73947 -1.82582,4.87994 c -2.54852,6.81151 -3.10567,9.34799 -2.05333,9.34799 0.49166,0 1.60856,3.16542 2.48201,7.03426 1.45945,6.46448 2.96971,9.24695 2.96971,5.47135 0,-0.85961 0.61595,-2.44232 1.36878,-3.51713 1.2474,-1.78092 2.093,-1.95422 9.53584,-1.95422 9.13127,0 10.29421,0.61084 11.71788,6.15498 1.17331,4.56911 3.69386,4.15511 5.35329,-0.87929 0.71731,-2.17622 1.73948,-4.24746 2.27148,-4.60276 0.53199,-0.3553 4.52835,-0.646 8.88079,-0.646 4.35246,0 8.33852,0.2907 8.85793,0.646 0.5194,0.3553 1.4611,2.52546 2.09265,4.82258 1.3471,4.89974 4.05655,5.87257 4.89783,1.75857 0.27196,-1.32992 0.98612,-3.40722 1.58701,-4.61624 1.0443,-2.10111 1.48754,-2.20924 10.03541,-2.44836 l 8.94286,-0.25015 1.2338,2.44836 c 0.67859,1.3466 1.4947,3.53647 1.81358,4.86639 0.90527,3.77543 3.71828,3.22327 4.4796,-0.87928 1.03684,-5.58719 2.36735,-6.3748 10.76894,-6.3748 4.06748,0 8.15823,0.40825 9.09055,0.90721 0.96336,0.51556 2.12221,2.60327 2.68443,4.83605 0.96049,3.81444 1.08948,3.92885 4.43028,3.92885 4.73317,0 9.331,2.09752 10.57299,4.82339 1.00627,2.20854 1.2491,2.26935 8.08283,2.02409 l 7.04538,-0.25286 3.03156,-8.79283 c 10.54031,-30.57143 19.50724,-56.77367 24.52401,-71.66151 3.17772,-9.43031 6.16845,-17.64549 6.64605,-18.25596 1.50141,-1.91909 3.24662,0.35912 2.40088,3.13414 -0.70851,2.32476 -17.36456,51.02537 -25.16985,73.5941 -8.38617,24.2483 -9.22341,27.02686 -8.96068,29.73807 l 0.27089,2.79537 11.65049,0.24535 11.65049,0.24534 v 8.76731 8.7673 H 400.79379 296.59882 v 13.73143 13.73142 l 1.97838,-0.57595 c 1.08812,-0.31677 4.74813,-1.31878 8.13337,-2.2267 3.38523,-0.9079 10.70526,-2.90442 16.26672,-4.43671 5.56146,-1.53228 13.07932,-3.58014 16.70637,-4.55082 3.62704,-0.97068 9.16652,-2.45604 12.30995,-3.30083 34.24096,-9.20216 34.39818,-9.22171 34.9906,-4.34963 0.14242,1.17123 -2.36383,9.63838 -5.56945,18.81588 -3.20562,9.17752 -7.74024,22.22586 -10.07693,28.99634 -2.33671,6.77048 -6.90372,19.82783 -10.14891,29.01632 -3.24522,9.18851 -6.2978,18.32275 -6.78352,20.29831 -0.89419,3.63687 -0.63351,5.05806 5.95351,32.45864 3.60879,15.01177 9.23787,40.02415 9.74579,43.30466 l 0.5786,3.73696 h -8.37023 c -7.95954,0 -8.39253,-0.097 -8.82429,-1.97839 -6.88935,-30.01891 -6.71829,-29.48637 -10.41156,-32.4115 -1.91106,-1.51359 -3.65515,-2.57149 -3.87576,-2.35089 -0.33183,0.33184 -10.06919,27.75779 -10.06919,28.36057 0,0.10514 5.55262,2.90755 12.33917,6.22747 9.26438,4.53206 12.46008,6.51794 12.82438,7.96935 0.68446,2.72715 -1.10417,5.62461 -3.43225,5.56001 -1.07109,-0.0297 -8.47612,-3.29405 -16.45561,-7.25408 -12.97413,-6.43873 -14.53717,-7.45146 -14.78251,-9.57788 -0.15457,-1.33975 2.43655,-9.93974 5.93516,-19.69894 3.41522,-9.52659 6.20951,-17.423 6.20951,-17.54758 0,-0.12456 -8.70174,-7.21872 -19.3372,-15.76479 -10.63545,-8.54606 -19.56154,-15.9013 -19.83574,-16.34497 -0.2742,-0.44367 -1.0685,-0.80668 -1.76509,-0.80668 -0.93671,0 -41.49825,31.31844 -45.38501,35.04273 -0.32614,0.31251 1.23052,7.49256 3.45926,15.95566 2.22874,8.46309 4.0783,17.0917 4.11013,19.17467 l 0.0579,3.78724 -12.30996,7.51887 c -14.93704,9.1235 -15.48901,9.35759 -17.96882,7.62066 z m 1.5673,-20.29598 c 2.75364,-11.17807 9.03339,-38.87191 9.13615,-40.29062 0.15587,-2.15184 -3.9502,-19.72041 -4.609,-19.72041 -0.27048,0 -1.79952,5.63841 -3.39788,12.52978 -8.52796,36.76854 -11.54585,49.97212 -11.54585,50.5142 0,0.14541 2.16097,0.26436 4.80215,0.26436 h 4.80217 z m 139.32897,-9.6721 c -1.63778,-7.13319 -4.72204,-20.48728 -6.85392,-29.67578 -2.13188,-9.18851 -4.13802,-18.19016 -4.45807,-20.00368 -0.32007,-1.81352 -0.8651,-3.2973 -1.21118,-3.2973 -0.34608,0 -1.73603,3.17943 -3.08878,7.06539 -2.64453,7.59683 -2.65529,11.13162 -0.0629,20.632 0.65983,2.41803 2.9038,12.0132 4.98662,21.3226 l 3.78693,16.92618 h 4.93951 4.9395 z m -19.18532,-25.05955 c -0.82148,-5.05383 -1.764,-5.76774 -2.99005,-2.26482 -0.91457,2.61295 -0.82221,3.08811 0.86745,4.46303 2.65627,2.16147 2.80603,2.00638 2.1226,-2.19821 z m -80.25957,-18.6081 c 10.49739,-8.42094 19.98085,-15.93747 21.07436,-16.70339 1.73654,-1.21633 1.82485,-1.5464 0.69771,-2.60764 -2.90126,-2.73163 -33.56806,-26.92795 -34.12893,-26.92795 -0.33353,0 -2.71431,9.19949 -5.29067,20.44331 -2.57634,11.24383 -5.07963,21.75003 -5.56288,23.34712 -0.65721,2.17207 -0.50696,4.49855 0.59629,9.23246 1.90214,8.16202 2.02372,8.52688 2.84091,8.52688 0.37789,0 9.27583,-6.88987 19.77321,-15.31079 z m 71.92216,4.97922 2.80671,-7.69372 -1.7992,-8.35318 c -0.98955,-4.59425 -2.82843,-12.70564 -4.0864,-18.0253 -1.25797,-5.31965 -2.57516,-11.25481 -2.92709,-13.18923 -0.35193,-1.93442 -1.13852,-3.51713 -1.74795,-3.51713 -1.68155,0 -34.42786,26.22859 -34.20707,27.39859 0.19805,1.04947 37.43524,31.07369 38.5388,31.07369 0.33851,0 1.8785,-3.46217 3.4222,-7.69372 z M 240.81057,687.9289 c 0.86688,-3.86885 4.04115,-17.5197 7.05393,-30.33524 3.01277,-12.81555 5.17599,-23.62168 4.80714,-24.01364 -0.36884,-0.39195 -2.56918,-0.58979 -4.88965,-0.43964 l -4.21902,0.27301 -2.48845,10.55138 c -1.36865,5.80328 -3.69491,15.91229 -5.16944,22.4645 l -2.68102,11.91312 1.77446,7.4311 c 2.70179,11.31473 2.85499,11.75795 3.59104,10.38902 0.35468,-0.65964 1.35413,-4.36477 2.22101,-8.23361 z m 103.79436,-1.97838 c 2.27027,-6.49081 2.56479,-8.24363 1.88377,-11.21086 -3.49846,-15.24285 -8.71904,-38.17043 -9.05955,-39.78752 -0.37067,-1.76036 -0.9477,-1.97839 -5.23588,-1.97839 -2.73888,0 -4.8193,0.39331 -4.8193,0.9111 0,0.50111 0.77404,4.16111 1.72011,8.13336 0.94605,3.97225 2.69921,11.57471 3.8959,16.89437 5.77842,25.68678 7.97327,34.73166 8.42806,34.73166 0.27273,0 1.70683,-3.46218 3.18689,-7.69372 z m -34.81661,-17.5939 17.14601,-13.89506 -0.24259,-4.3691 c -0.13342,-2.40302 -0.94989,-7.13885 -1.81438,-10.5241 l -1.57181,-6.15497 -33.0398,-0.2303 -33.03981,-0.23029 -1.46614,6.38526 c -2.49542,10.86794 -3.12484,13.74042 -3.12484,14.26072 0,0.27615 8.40006,7.18844 18.66679,15.36063 14.07483,11.20338 18.99566,14.66588 20.00367,14.07542 0.7353,-0.43073 9.0526,-7.03591 18.4829,-14.67821 z m 53.21262,-34.94323 c 3.21051,-9.18851 7.39218,-21.05881 9.29258,-26.37847 1.9004,-5.31967 3.45206,-10.11308 3.44813,-10.65205 -0.007,-0.95512 -8.00314,0.84504 -28.14419,6.33602 -14.27761,3.89244 -23.01668,6.25386 -30.77488,8.31575 -4.11064,1.09249 -7.8498,2.3211 -8.30922,2.73026 -0.45943,0.40915 9.47806,0.74391 22.0833,0.74391 21.64648,0 23.04369,0.0984 25.17175,1.77232 3.13966,2.46966 4.62198,7.24888 3.26463,10.52578 -1.87493,4.52651 -3.82602,5.54507 -11.46933,5.98753 -5.97428,0.34585 -6.9821,0.62466 -6.62355,1.83235 0.2326,0.78345 1.8435,7.75528 3.57978,15.49296 1.73628,7.73769 3.58022,15.65123 4.09765,17.58565 l 0.94077,3.51713 3.80265,-10.55138 c 2.09144,-5.80328 6.42942,-18.06926 9.63993,-27.25776 z M 235.34882,652.7576 c 1.69933,-7.25408 3.36035,-14.67302 3.69116,-16.48654 l 0.60146,-3.29731 h -4.96216 c -6.96176,0 -10.80045,-1.80036 -12.4972,-5.86123 -1.11482,-2.66814 -1.18524,-3.91424 -0.37423,-6.62115 1.72364,-5.75298 2.87118,-5.98256 29.90416,-5.98256 13.08136,0 23.78231,-0.29675 23.77987,-0.65946 -0.002,-0.3627 -3.4646,-1.59959 -7.69372,-2.74864 -4.22911,-1.14906 -13.62446,-3.77014 -20.87853,-5.82462 -7.25408,-2.05448 -17.14602,-4.80778 -21.98207,-6.11845 -4.83606,-1.31066 -9.48526,-2.57411 -10.33156,-2.80765 -0.84631,-0.23353 -1.53875,-0.0723 -1.53875,0.35831 0,0.79558 1.85268,8.34168 11.4942,46.81683 2.96908,11.84834 5.61748,22.52198 5.88532,23.71921 0.45106,2.01621 0.53587,2.04863 1.14967,0.43964 0.36447,-0.95543 2.05305,-7.6723 3.75238,-14.92638 z M 354.0735,627.63423 c 4.88851,-3.8453 1.58418,-9.58849 -5.54273,-9.63376 -2.20594,-0.014 -30.0871,-0.0199 -61.95815,-0.013 -50.64696,0.0111 -58.20735,0.18286 -60.01103,1.36468 -2.89589,1.89746 -2.77353,5.90131 0.25312,8.28206 2.29352,1.80409 2.93248,1.82239 63.62939,1.82239 60.69692,0 61.33588,-0.0183 63.6294,-1.82239 z m 147.3984,-56.21025 v -5.2757 l -17.36583,-0.0128 c -9.55121,-0.007 -102.63425,-0.01 -206.85121,-0.007 l -189.485364,0.007 -0.26178,5.28155 -0.26177,5.28153 H 294.35891 501.4719 Z m -123.97883,-14.06853 0.43964,-4.83605 41.10646,-0.22851 c 22.60855,-0.12568 41.10645,-0.54114 41.10645,-0.92325 0,-2.78346 -1.24446,-2.805 -161.96383,-2.805 -158.68118,0 -159.86645,0.0129 -161.61212,1.75855 -1.31892,1.31893 -1.75856,2.93096 -1.75856,6.44809 0,2.57922 0.26518,4.95468 0.58929,5.27879 0.32412,0.32411 54.82864,0.48898 121.12116,0.36637 l 120.53187,-0.22293 z m 100.2382,1.73025 v -3.48881 H 429.37073 381.0102 v 3.53059 3.5306 l 48.36053,-0.0418 48.36054,-0.0418 z M 168.22384,543.02315 c 0,-3.33294 -1.65463,-4.13262 -8.5508,-4.13262 -6.10442,0 -6.48528,0.1177 -7.29804,2.25544 -0.47164,1.2405 -0.85752,2.62537 -0.85752,3.07749 0,0.45218 3.75835,0.82204 8.35318,0.82204 8.13018,0 8.35318,-0.054 8.35318,-2.02235 z m 27.72301,-0.38687 c -0.83036,-3.30843 -1.77361,-3.71681 -8.62037,-3.7323 -5.59083,-0.0126 -6.00963,0.12517 -6.81444,2.24199 -0.47165,1.2405 -0.85752,2.62537 -0.85752,3.07749 0,0.45283 3.79455,0.82204 8.44851,0.82204 h 8.44849 z m 27.90212,0.43084 c -0.88475,-3.61405 -1.97109,-4.17713 -8.03172,-4.16314 -6.71472,0.0155 -7.59861,0.41627 -8.21236,3.7235 l -0.44876,2.41802 h 8.58858 c 8.46398,0 8.58155,-0.0286 8.10426,-1.97838 z m 55.16446,0.60165 c 0,-0.75721 -0.40585,-2.13507 -0.9019,-3.06194 -0.79379,-1.48323 -1.71022,-1.64674 -7.64601,-1.36434 -5.5897,0.26595 -6.85457,0.60193 -7.38947,1.96284 -1.44056,3.66507 -1.09474,3.84017 7.5842,3.84017 6.99474,0 8.35318,-0.22389 8.35318,-1.37673 z m 7.93531,-0.87872 c 0.85312,-2.24387 1.28722,-111.17199 0.44305,-111.17199 -2.14998,0 -40.44016,15.07423 -55.85961,21.99103 -26.69494,11.97472 -66.25107,35.15055 -63.9396,37.46202 0.74721,0.74721 25.578,-2.23986 37.86331,-4.55483 6.31924,-1.19076 14.07912,-3.23302 17.24417,-4.53834 4.56739,-1.88368 7.20587,-2.38009 12.78889,-2.40615 l 7.03426,-0.0328 10.1009,6.06785 c 5.5555,3.3373 13.22831,7.58022 17.05069,9.42869 3.82239,1.84845 7.68512,4.0263 8.58385,4.83964 2.2428,2.02969 2.04746,4.89979 -0.52216,7.67247 -2.12477,2.29265 -3.85339,2.77482 -8.61498,2.40294 -1.32992,-0.1038 -2.41803,0.19966 -2.41803,0.6745 0,0.47483 1.78055,4.80037 3.95677,9.61232 2.35731,5.21232 3.95678,10.03992 3.95678,11.94249 0,2.7952 0.26634,3.19354 2.13539,3.19354 2.33783,0 4.89886,2.07144 4.89886,3.96234 0,2.44711 1.75852,5.70977 3.07749,5.70977 0.74934,0 1.74833,-1.01495 2.21997,-2.25545 z m 20.20174,0.2331 c 0,-3.32698 -1.65669,-4.13262 -8.49812,-4.13262 -5.41554,0 -6.52637,0.25887 -7.29804,1.70075 -2.15984,4.03569 -1.46047,4.45422 7.44297,4.45422 8.13018,0 8.35319,-0.054 8.35319,-2.02235 z m 7.10872,-7.26725 c 0.76635,-4.4007 1.48329,-6.06223 3.06225,-7.09679 1.13391,-0.74296 2.41623,-1.1317 2.8496,-0.86386 0.43336,0.26784 1.80192,-2.56671 3.04124,-6.299 1.23931,-3.7323 2.54469,-7.52409 2.90085,-8.42621 0.5454,-1.38143 0.34603,-1.5445 -1.26377,-1.03358 -4.68804,1.48793 -10.66464,-2.13047 -10.66464,-6.45665 0,-2.82835 1.51286,-4.38594 6.88335,-7.08686 2.09322,-1.05272 6.24783,-3.60412 9.23246,-5.66978 2.98463,-2.06567 7.80067,-5.39815 10.7023,-7.40551 3.26984,-2.26209 7.43577,-4.1945 10.957,-5.08249 5.29176,-1.33449 6.17514,-1.32909 12.88391,0.0787 l 7.20261,1.51151 7.77924,-2.65147 c 9.80293,-3.34125 29.41189,-11.3439 30.52603,-12.45803 0.53453,-0.53452 -0.0919,-1.20024 -1.72067,-1.82856 -11.19521,-4.31874 -15.33675,-5.84273 -24.98291,-9.19307 -22.53688,-7.82763 -49.34115,-15.72025 -71.66153,-21.10104 -7.25407,-1.74875 -13.68382,-3.34148 -14.28833,-3.53943 -0.871,-0.28519 -1.09911,10.48391 -1.09911,51.88786 v 52.24776 l 5.46589,0.26177 c 5.87746,0.28149 6.29075,0.6278 8.70714,7.29604 0.93632,2.58391 0.97153,2.59712 1.72118,0.6462 0.42091,-1.09541 1.21558,-4.57733 1.76591,-7.73759 z m 24.26163,8.05973 c -0.25956,-0.67643 -0.94689,-3.64401 -1.52739,-6.59462 -0.5805,-2.95061 -1.33886,-5.36475 -1.68524,-5.36475 -0.34638,0 -1.94353,0.65539 -3.54921,1.45642 -2.47572,1.23504 -3.33149,1.28658 -5.63061,0.33909 -1.49115,-0.61452 -3.76302,-1.30949 -5.04861,-1.54437 -2.22857,-0.40718 -2.38494,-0.18753 -3.35786,4.71677 -0.56124,2.82911 -1.2177,5.83628 -1.45879,6.68259 -0.4016,1.40979 0.53249,1.53874 11.14567,1.53874 9.56287,0 11.50166,-0.21458 11.11204,-1.22987 z m 24.02444,-0.14686 c 0,-0.75721 -0.4096,-2.14207 -0.91021,-3.07749 -0.77553,-1.44908 -1.88475,-1.70075 -7.49568,-1.70075 -6.25998,0 -6.62782,0.11146 -7.44296,2.25544 -0.47163,1.2405 -0.85752,2.62537 -0.85752,3.07749 0,0.45218 3.75835,0.82204 8.35318,0.82204 6.99475,0 8.35319,-0.22389 8.35319,-1.37673 z m 27.723,-1.03249 c -0.82946,-3.3048 -1.77522,-3.71681 -8.56768,-3.7323 -4.94563,-0.0112 -6.05199,0.26267 -6.81444,1.6873 -2.16369,4.04291 -1.46759,4.45422 7.53829,4.45422 h 8.44851 z m 28.06307,0.43084 c -1.13539,-3.70358 -2.12819,-4.17659 -8.76611,-4.17659 -6.38902,0 -6.40274,0.006 -7.36624,2.76906 -0.53091,1.52298 -0.9653,2.90785 -0.9653,3.07749 0,0.16962 3.98343,0.30842 8.85209,0.30842 8.77344,0 8.84669,-0.0176 8.24556,-1.97838 z m 27.74576,1.15634 c 0,-0.45212 -0.38588,-1.83699 -0.85752,-3.07749 -0.81598,-2.14618 -1.17911,-2.25544 -7.49566,-2.25544 -6.31656,0 -6.67969,0.10924 -7.49567,2.25544 -0.47163,1.2405 -0.85752,2.62537 -0.85752,3.07749 0,0.45218 3.75836,0.82204 8.35319,0.82204 4.59483,0 8.35318,-0.36986 8.35318,-0.82204 z M 270.94626,532.9169 c 0.32854,-2.31668 -6.09514,-18.11275 -11.96802,-29.42984 -4.45649,-8.58768 -11.7437,-17.25708 -16.3385,-19.43745 -6.9666,-3.30587 -18.1239,-0.55422 -24.11737,5.94792 -5.94894,6.45384 -5.76894,10.66328 0.83886,19.61913 3.55761,4.82175 4.25514,7.29181 2.0592,7.29181 -0.72541,0 -1.31893,0.36695 -1.31893,0.81545 0,0.97497 4.27771,4.46023 5.47435,4.46023 0.48131,0 0.71256,-2.53223 0.54088,-5.92286 -0.25514,-5.03914 -0.075,-5.96621 1.20744,-6.2134 1.75374,-0.33803 2.32639,1.51673 2.66115,8.61913 l 0.22794,4.83606 4.26549,0.27163 4.26549,0.27163 -0.30872,-8.61235 c -0.27177,-7.58165 -0.12833,-8.64713 1.19861,-8.90306 1.65636,-0.31944 1.79229,0.0904 3.36815,10.1546 0.54874,3.50442 1.38715,6.61237 1.86314,6.90655 0.47601,0.29419 1.86939,-0.39685 3.09641,-1.53562 2.18566,-2.02846 2.21913,-2.24606 1.64818,-10.71671 -0.52206,-7.74546 -0.4319,-8.61567 0.86552,-8.35317 0.91977,0.18608 2.70216,3.50176 4.88422,9.08583 7.15752,18.31671 10.22471,23.58638 13.45939,23.12432 1.14747,-0.16389 1.94887,-1.02284 2.12712,-2.27983 z m 60.22324,-3.91831 c 1.45373,-1.34707 3.75101,-6.69159 7.19913,-16.74852 3.91773,-11.42661 5.37969,-14.70937 6.45826,-14.50165 1.17138,0.22558 1.3515,1.50303 1.12715,7.99415 -0.29003,8.3916 0.9935,12.04518 4.23155,12.04518 1.41521,0 1.75779,-0.90046 2.2581,-5.93516 0.81772,-8.22888 1.64845,-11.21085 3.12321,-11.21085 1.01365,0 1.26303,1.7361 1.26303,8.79282 v 8.79282 l 2.52427,0.28848 c 1.38835,0.15866 3.44971,0.0562 4.5808,-0.22767 1.91949,-0.48177 2.07354,-0.99836 2.31178,-7.75266 0.2142,-6.07237 0.50279,-7.2838 1.794,-7.53051 1.34816,-0.25761 1.53874,0.47632 1.53874,5.92543 0,6.80412 0.69217,7.52783 4.11993,4.30761 2.3061,-2.16646 2.69103,-3.80372 0.71613,-3.04588 -2.31424,0.88806 -1.52363,-3.53826 1.18998,-6.66217 5.52138,-6.35627 5.82507,-9.37415 1.35528,-13.46831 -7.46163,-6.83459 -20.63033,-8.90311 -28.92373,-4.5433 -6.82819,3.58954 -8.04036,4.92187 -11.75953,12.92513 -3.32537,7.15583 -11.54146,27.92206 -11.54146,29.17112 0,0.86305 2.62458,3.36233 3.5309,3.36233 0.4221,0 1.72822,-0.89027 2.90248,-1.97839 z m -0.60649,-27.03793 c 1.51217,-3.14343 2.63327,-5.84722 2.49133,-6.00841 -0.26165,-0.29712 -10.86159,5.77853 -13.9667,8.00539 -1.09303,0.78389 -1.48547,1.75066 -1.10893,2.7319 0.46962,1.22383 1.4809,1.46702 5.20883,1.25257 l 4.62607,-0.26611 z m -57.15923,3.96928 c 1.73742,-0.72594 2.97489,-1.80034 2.78505,-2.41802 -0.34625,-1.12663 -15.2228,-9.31417 -17.10092,-9.41175 -1.9999,-0.10392 5.31053,10.72185 8.04488,11.91338 3.29672,1.43658 2.61076,1.44573 6.27099,-0.0836 z"
       id="path5"
       sodipodi:nodetypes="cssscsssscssssssssssscccccccssscssssssssssscccscscsssssssssssssccsssssssscssscssssssssssssssscssssssssscsssssscccccccccsssssssssssscsssssssssssssssssscsccsssssscsssssssscccssssssssssssssscssssssssssscsscssssssssssssscsscccsssssssssssssssssscsssscsssscsssssssssssssssssccscccccccccssssssscccccccccccssssssssssscsssscssssssssssssssscsssssssssssssssssssssssssssssscssssssscssssssssssssssssssssssssscssssssssssssssssssssssssscccsssssssssssssssssscssssssssssssssssssscsssssss" /><g
       id="g20"
       transform="matrix(5.5610755,0,0,4.877041,-2223.8279,-2631.0909)"><path
         style="fill:#000000"
         d="m 445.96014,593.60688 c -1.8186,-0.0477 -3.06727,-0.14907 -4.43515,-0.35994 -0.25781,-0.0398 -1.29629,-0.27975 -2.30772,-0.53335 -2.22183,-0.55708 -2.60916,-0.61573 -4.35467,-0.6594 -0.74902,-0.0187 -1.42414,-0.0674 -1.50027,-0.10814 -0.19302,-0.1033 -0.41857,-0.49559 -0.41889,-0.72855 -6.3e-4,-0.45233 0.27531,-0.74029 0.78793,-0.82226 l 0.29354,-0.0469 v -1.42338 c 0,-1.66209 -0.0149,-1.62246 0.77588,-2.06178 0.26738,-0.14855 0.51,-0.30533 0.53914,-0.34841 0.0291,-0.0431 0.0535,-0.22211 0.0541,-0.39785 0.002,-0.54055 0.36005,-2.65847 0.61675,-3.64686 0.3937,-1.51586 0.78568,-2.5683 1.41982,-3.81213 1.23329,-2.41901 3.00146,-4.40711 5.30466,-5.96447 0.54232,-0.3667 0.58245,-0.4116 0.62697,-0.70132 0.0721,-0.46944 0.38716,-0.77431 1.18072,-1.14263 0.38408,-0.17826 0.78508,-0.31468 0.92499,-0.31468 0.26281,0 0.59082,0.1392 0.7337,0.31136 0.0751,0.0905 0.16153,0.0814 0.6438,-0.0681 0.60943,-0.18891 2.48294,-0.57328 3.12398,-0.64092 0.37526,-0.0396 0.41885,-0.0644 0.62374,-0.3551 0.31265,-0.44356 0.71074,-0.566 1.73288,-0.53297 0.9035,0.0292 1.2297,0.15185 1.52268,0.57255 0.16864,0.24217 0.23013,0.27537 0.58509,0.31589 0.65323,0.0746 2.52172,0.45966 3.10099,0.63909 l 0.54087,0.16754 0.28116,-0.20465 c 0.41753,-0.30391 0.70879,-0.27653 1.58597,0.1491 0.80663,0.3914 1.04425,0.62825 1.10814,1.10458 0.0314,0.23422 0.0916,0.32491 0.318,0.47901 4.47434,3.04571 6.86168,7.09284 7.56187,12.81925 0.16259,1.32969 0.13799,1.27578 0.71951,1.57708 0.7298,0.37813 0.79232,0.55516 0.79287,2.24506 l 4.1e-4,1.23478 0.29608,0.0474 c 0.42179,0.0675 0.71354,0.37579 0.71354,0.75412 0,0.7759 -0.1658,0.85543 -1.88,0.90182 -1.6135,0.0437 -2.14648,0.11537 -3.63688,0.48934 -3.44025,0.86322 -4.27353,0.97651 -7.891,1.07279 -2.83608,0.0755 -9.0835,0.0719 -12.08518,-0.007 z m 14.63958,-0.70991 c 1.89875,-0.16144 2.65506,-0.30243 5.01604,-0.93509 1.23078,-0.3298 2.16135,-0.45737 3.56578,-0.48884 0.75362,-0.0169 1.44323,-0.0462 1.53247,-0.0651 0.15784,-0.0334 0.22984,-0.2698 0.10556,-0.3466 -0.0312,-0.0193 -0.97997,-0.12156 -2.10842,-0.2273 -1.62697,-0.15246 -2.08042,-0.17434 -2.19035,-0.10569 -0.10418,0.0651 -0.57552,0.0735 -1.89663,0.0339 l -1.758,-0.0527 -0.49963,-0.23944 c -0.44912,-0.21524 -0.60015,-0.2471 -1.49381,-0.3152 -4.55439,-0.34707 -11.82166,-0.36564 -16.71912,-0.0427 -1.51419,0.0998 -1.54516,0.10513 -2.0649,0.35326 l -0.52766,0.2519 -1.78572,0.0492 c -1.38251,0.0381 -1.81025,0.0288 -1.89439,-0.041 -0.0747,-0.062 -0.23796,-0.0761 -0.52201,-0.045 -0.22732,0.0249 -1.14296,0.11109 -2.03475,0.19164 -1.67557,0.15134 -1.93789,0.22006 -1.74182,0.4563 0.0676,0.0814 0.39715,0.11101 1.5443,0.13857 1.6246,0.039 2.47954,0.16483 4.04435,0.59506 2.23862,0.6155 2.9743,0.72348 6.32037,0.92772 1.08843,0.0664 14.18137,-0.014 15.10834,-0.0928 z m -25.55152,-2.64793 0.26607,-0.044 -0.0137,-1.43351 c -0.008,-0.78844 -0.0299,-1.43302 -0.0497,-1.43241 -0.0198,6e-4 -0.16587,0.0746 -0.32453,0.1644 l -0.28846,0.16329 -0.0197,1.3139 c -0.0154,1.02609 4.5e-4,1.31373 0.0721,1.31311 0.0505,-4.4e-4 0.2115,-0.0206 0.35784,-0.0448 z m 34.74633,-1.25149 v -1.29706 l -0.28993,-0.19187 c -0.15946,-0.10553 -0.30192,-0.17901 -0.31657,-0.16329 -0.0147,0.0157 -0.0394,0.66799 -0.0549,1.44949 l -0.0283,1.4209 0.21862,0.0279 c 0.51677,0.066 0.47103,0.18699 0.47103,-1.24608 z m -28.52194,1.12053 c 0.0451,-0.0133 0.064,-0.41605 0.0504,-1.07618 l -0.0217,-1.055 h -1.51073 -1.51074 v 1.12293 1.12292 l 1.46036,-0.0467 c 0.80319,-0.0257 1.4928,-0.0563 1.53247,-0.0679 z m 24.88779,-0.01 c -0.0241,-0.0627 -0.0438,-0.56575 -0.0438,-1.1178 v -1.00373 h -1.51444 -1.51444 v 1.07953 1.07952 l 0.88342,0.0227 c 2.33521,0.06 2.23638,0.0627 2.18923,-0.0602 z m -28.87221,-0.0731 0.5589,-0.0491 v -1.17178 -1.17179 l 0.51706,-0.42285 0.51706,-0.42285 1.82154,0.008 c 1.00185,0.005 1.87255,0.0279 1.93489,0.0518 0.0974,0.0374 0.11335,0.23159 0.11335,1.38192 v 1.33842 l 0.45072,-0.0398 c 1.03004,-0.091 3.15542,-0.18461 6.03805,-0.26604 2.39786,-0.0677 3.69021,-0.0674 5.94958,0.002 2.89238,0.0883 5.02704,0.18341 6.00536,0.26757 l 0.52284,0.045 v -1.33605 c 0,-0.90338 0.026,-1.35211 0.0803,-1.38566 0.13408,-0.0829 3.61742,-0.0943 3.77795,-0.0124 0.0793,0.0405 0.34705,0.2503 0.59495,0.4663 l 0.45073,0.39273 v 1.1348 1.13481 l 0.87256,0.0899 c 0.47991,0.0495 0.89367,0.0689 0.91948,0.0432 0.0876,-0.0873 0.0969,-2.66271 0.0131,-3.6409 -0.25863,-3.0187 -0.86784,-5.30128 -2.01107,-7.53493 -0.9633,-1.88213 -2.17861,-3.42466 -3.68838,-4.68149 -0.55982,-0.46602 -1.46288,-1.12507 -1.54163,-1.12507 -0.0247,0 -0.0451,1.06281 -0.0453,2.36181 -2.2e-4,1.31002 -0.0317,2.47421 -0.0706,2.61421 -0.0982,0.35279 -0.47752,0.78727 -0.82531,0.94524 -0.64156,0.29139 -1.49158,0.0986 -1.8945,-0.42964 -0.37034,-0.48554 -0.3757,-0.54091 -0.3791,-3.9175 l -0.003,-3.14949 -0.23438,-0.0733 c -0.96455,-0.30158 -2.20705,-0.57311 -3.20917,-0.70132 l -0.37861,-0.0484 v 4.78224 c 0,4.68723 -0.003,4.78837 -0.14913,5.09032 -0.17949,0.37078 -0.55791,0.71706 -0.99481,0.91032 -0.2575,0.11391 -0.43194,0.13604 -0.87154,0.11059 -0.65064,-0.0377 -1.14025,-0.25057 -1.45715,-0.63364 -0.42033,-0.50809 -0.42164,-0.52558 -0.42164,-5.60961 v -4.64518 l -0.37861,0.0487 c -0.59347,0.0763 -1.94257,0.31982 -2.18152,0.39383 -0.11899,0.0368 -0.45162,0.13528 -0.73919,0.21872 l -0.52284,0.15171 v 3.20844 c 0,2.73747 -0.0164,3.24778 -0.112,3.47655 -0.43701,1.04616 -1.81276,1.27802 -2.60596,0.43918 -0.12648,-0.13375 -0.2644,-0.33454 -0.30649,-0.44619 -0.0485,-0.1286 -0.0765,-1.10008 -0.0765,-2.65027 0,-1.50133 -0.0265,-2.44726 -0.0687,-2.44726 -0.12379,0 -0.96232,0.62234 -1.77918,1.32047 -2.80206,2.39478 -4.67911,6.03643 -5.28541,10.25418 -0.2249,1.56451 -0.31233,3.03978 -0.2559,4.31786 l 0.0505,1.14474 0.36999,-0.0419 c 0.20349,-0.023 0.62149,-0.064 0.92889,-0.091 z m 25.36686,-1.0929 v -1.06371 l -0.25241,-0.20139 -0.2524,-0.2014 v 1.14385 1.14385 l 0.23437,0.11665 c 0.12891,0.0641 0.2425,0.11872 0.25241,0.12125 0.01,0.003 0.018,-0.47405 0.018,-1.0591 z m -20.55209,0.8829 0.21021,-0.10871 -0.0273,-1.09924 c -0.015,-0.60458 -0.0301,-1.11372 -0.0335,-1.13142 -0.003,-0.0177 -0.11975,0.0779 -0.25857,0.21247 l -0.25241,0.24464 v 0.99548 c 0,0.64697 0.0265,0.99548 0.0757,0.99548 0.0416,0 0.17029,-0.0489 0.2859,-0.1087 z m -0.46724,-2.3876 c 0.0978,-0.0641 0.17776,-0.14162 0.17776,-0.17235 0,-0.0307 -0.63757,-0.0457 -1.41681,-0.0332 -1.32162,0.0211 -1.42686,0.0327 -1.56652,0.17235 l -0.14972,0.14972 h 1.38877 c 1.15697,0 1.41844,-0.0194 1.56652,-0.11647 z m 24.04821,0.0599 c 0,-0.0311 -0.09,-0.10975 -0.20006,-0.17474 -0.16493,-0.0974 -0.43973,-0.11955 -1.56517,-0.12597 l -1.36512,-0.008 0.17148,0.18254 0.17148,0.18253 h 1.39369 c 0.76654,0 1.3937,-0.0255 1.3937,-0.0566 z m -12.78408,-6.64763 c 0.1761,-0.0799 0.36647,-0.23928 0.45045,-0.37702 0.1421,-0.23307 0.14546,-0.35179 0.14546,-5.14247 0,-4.73372 -0.005,-4.9119 -0.14052,-5.13435 -0.18444,-0.3025 -0.54209,-0.40609 -1.28545,-0.37233 -0.62763,0.0285 -0.90059,0.15544 -1.07847,0.50155 -0.13955,0.27155 -0.12998,9.73348 0.0101,10.00275 0.12812,0.24624 0.38721,0.4897 0.61987,0.58248 0.30245,0.1206 0.94662,0.0901 1.27854,-0.0606 z m -7.4968,-2.45486 c 0.1299,-0.0792 0.26782,-0.22722 0.3065,-0.32895 0.042,-0.11041 0.0703,-1.52069 0.0703,-3.49915 v -3.31419 l -0.17152,-0.0782 c -0.1444,-0.0658 -0.26875,-0.0326 -0.78646,0.21002 -0.94676,0.44367 -0.88135,0.17439 -0.87895,3.61856 0.002,2.73084 0.0109,2.93668 0.13654,3.12484 0.27733,0.41534 0.88067,0.53706 1.32357,0.26702 z m 14.64213,0.047 c 0.0916,-0.0509 0.22935,-0.18762 0.30602,-0.30394 0.13197,-0.20019 0.13944,-0.36635 0.13989,-3.11076 3.5e-4,-2.1376 -0.0228,-2.9503 -0.088,-3.09348 -0.0625,-0.13711 -0.25743,-0.27589 -0.66326,-0.47215 -0.59346,-0.28698 -0.88698,-0.34118 -1.03675,-0.19142 -0.0648,0.0648 -0.0865,0.9063 -0.0865,3.34274 v 3.2562 l 0.16443,0.24399 c 0.0904,0.1342 0.24458,0.28455 0.34255,0.33413 0.22924,0.11599 0.70804,0.11324 0.92166,-0.005 z"
         id="path6"
         sodipodi:nodetypes="ssssssscssscsssssssssssssscssscssscssssssssssssssscsssscsssssssssscccsscssscccssscsscsscccccssssscccccssscccccccsscsscscsssscccssssssscssccsscsssssscssscscssssssscsccccccccscscccscscssscsssscssscsccccsccssssssssssssscsssssscsssssscsscc" /><path
         style="fill:#ffcc00;fill-opacity:1;stroke-width:0.0820394"
         d="m 436.01896,587.99889 c 0.0748,-3.61584 0.57762,-5.99039 1.82687,-8.62716 1.05554,-2.22787 2.61613,-4.13451 4.60945,-5.63154 0.68509,-0.51451 0.722,-0.53149 0.7728,-0.35534 0.0293,0.10174 0.057,1.16354 0.0616,2.35957 0.005,1.19601 0.0443,2.30023 0.0883,2.4538 0.18126,0.63205 0.82875,1.02568 1.60574,0.97621 0.6112,-0.0389 1.00479,-0.2732 1.27919,-0.76143 0.18072,-0.32154 0.18513,-0.39339 0.2199,-3.58107 l 0.0355,-3.25295 0.70741,-0.2111 c 0.69736,-0.2081 2.40891,-0.54638 2.76448,-0.54638 h 0.18248 l 0.0381,4.69676 c 0.0258,3.1832 0.0682,4.79153 0.13144,4.99085 0.37498,1.18111 2.31363,1.54948 3.30525,0.62805 0.54016,-0.50192 0.51732,-0.27095 0.54775,-5.53685 l 0.0276,-4.77881 h 0.19412 c 0.31788,0 1.91033,0.32049 2.72515,0.54845 l 0.75886,0.21231 0.005,2.47049 c 0.003,1.35878 0.0349,2.87011 0.0726,3.35851 0.0621,0.80501 0.0906,0.91539 0.30554,1.18094 0.38232,0.47238 0.71291,0.61109 1.38442,0.58087 0.64047,-0.0288 0.88727,-0.16458 1.2657,-0.69624 l 0.2081,-0.29237 0.041,-2.50489 0.041,-2.50489 0.8204,0.62089 c 3.35256,2.5373 5.41074,6.23396 6.1576,11.05951 0.1447,0.93503 0.25695,3.28073 0.21498,4.49272 l -0.0264,0.76475 -0.5478,-0.051 c -0.30128,-0.0281 -0.68623,-0.0709 -0.85544,-0.0951 l -0.30764,-0.0442 v -1.12702 -1.12702 l -0.54857,-0.44502 -0.54856,-0.44503 h -1.87461 c -1.57706,0 -1.88696,0.0195 -1.95239,0.12305 -0.0428,0.0677 -0.0783,0.69083 -0.079,1.38476 l -9e-4,1.26171 -0.55377,-0.0509 c -3.68967,-0.33886 -14.63364,-0.33871 -17.83779,2.5e-4 l -0.46594,0.0492 -0.0263,-1.31596 c -0.0145,-0.72378 -0.0498,-1.33938 -0.0786,-1.36801 -0.0288,-0.0286 -0.89906,-0.0741 -1.93402,-0.10115 l -1.88174,-0.0491 -0.5459,0.44321 -0.54591,0.4432 -0.002,1.15993 -0.002,1.15993 -0.26662,0.0455 c -0.14665,0.0251 -0.55753,0.0709 -0.91305,0.10181 l -0.64643,0.0562 z"
         id="path7" /><path
         style="fill:#ffcc00;fill-opacity:1;stroke-width:0.0820394"
         d="m 443.91309,592.84299 c -1.80141,-0.15029 -2.68834,-0.30126 -4.50898,-0.76754 -1.91259,-0.48981 -2.39888,-0.56409 -4.2482,-0.64891 -0.80062,-0.0368 -1.48114,-0.0922 -1.51226,-0.12335 -0.15436,-0.15436 0.27213,-0.24163 2.06097,-0.42173 1.44256,-0.14525 2.00512,-0.1739 2.16615,-0.11036 0.14283,0.0564 0.80906,0.0676 1.94034,0.0327 1.65616,-0.0511 1.74532,-0.0625 2.30397,-0.29273 0.46376,-0.19115 0.78686,-0.2561 1.59976,-0.32158 4.39481,-0.35399 15.08334,-0.30605 17.74022,0.0796 0.3079,0.0447 0.74802,0.17662 0.97806,0.2932 l 0.41824,0.21193 2.75473,0.0252 c 2.68916,0.0246 5.02671,0.18695 5.20103,0.36127 0.15642,0.15642 -0.27895,0.23221 -1.62589,0.28303 -1.68467,0.0635 -2.2916,0.15829 -4.47115,0.69782 -2.47197,0.61191 -2.96856,0.67013 -6.39908,0.75014 -4.64715,0.10839 -12.84807,0.0807 -14.39791,-0.0486 z"
         id="path9" /><path
         style="fill:#ffcc00;fill-opacity:1;stroke-width:0.0820394"
         d="m 438.29338,589.1163 v -1.06651 h 1.47671 1.47672 v 1.01283 1.01283 l -1.04601,0.0533 c -0.5753,0.0293 -1.23982,0.0535 -1.47671,0.0537 l -0.43071,3.4e-4 z"
         id="path10" /><path
         style="fill:#ffcc00;fill-opacity:1;stroke-width:0.0145027"
         d="m 438.80178,587.44561 c 0.16849,-0.16281 0.22419,-0.17312 1.05798,-0.19575 0.91411,-0.0248 1.90392,-0.0142 1.9382,0.0208 0.0154,0.0158 -0.12131,0.13492 -0.20138,0.17549 -0.13157,0.0667 -0.27296,0.0801 -0.98457,0.0937 -0.36293,0.007 -0.94376,0.0128 -1.29073,0.0129 l -0.63087,3.6e-4 z"
         id="path11" /><path
         style="fill:#ffcc00;fill-opacity:1;stroke-width:0.0145027"
         d="m 441.80123,589.89631 c -0.0318,-0.0834 -0.0453,-0.36966 -0.0535,-1.1319 l -0.009,-0.81284 0.22847,-0.21355 c 0.12565,-0.11744 0.24082,-0.22015 0.25592,-0.22823 0.025,-0.0134 0.0274,-0.009 0.0274,0.0489 0,0.0912 0.0406,1.64064 0.0502,1.91752 l 0.008,0.23255 -0.16334,0.0827 c -0.0898,0.0455 -0.20112,0.0956 -0.2473,0.1113 l -0.084,0.0286 z"
         id="path12" /><path
         style="fill:#ffcc00;fill-opacity:1;stroke-width:0.0145027"
         d="m 434.64972,590.20647 c -0.0164,-0.064 -0.0194,-0.29297 -0.0162,-1.26734 0.002,-0.65408 0.009,-1.20804 0.0151,-1.23103 0.009,-0.0332 0.0395,-0.0581 0.14846,-0.12122 0.23462,-0.13578 0.43557,-0.23956 0.44521,-0.2299 0.005,0.005 0.014,0.0793 0.0199,0.16483 0.0139,0.20346 0.0451,2.1474 0.0392,2.44691 l -0.005,0.23195 -0.19579,0.0321 c -0.10768,0.0177 -0.24875,0.0366 -0.31351,0.042 l -0.11772,0.01 z"
         id="path13" /><path
         style="fill:#ffcc00;fill-opacity:1;stroke-width:0.0290053"
         d="m 444.55309,578.46278 c -0.30852,-0.12434 -0.48477,-0.30894 -0.54287,-0.56862 -0.0468,-0.209 -0.0716,-4.81692 -0.0288,-5.33154 0.0616,-0.73925 0.13559,-0.84453 0.80462,-1.14436 0.58336,-0.26144 0.65542,-0.28027 0.83103,-0.21712 l 0.1409,0.0507 -0.0122,3.33627 c -0.009,2.39815 -0.0215,3.36505 -0.0454,3.43859 -0.044,0.13541 -0.24542,0.32888 -0.42564,0.40881 -0.20531,0.0911 -0.5326,0.10344 -0.72152,0.0273 z"
         id="path14" /><path
         style="fill:#ffcc00;fill-opacity:1;stroke-width:0.0290053"
         d="m 451.72812,580.93009 c -0.23508,-0.0772 -0.47076,-0.25871 -0.6229,-0.47963 l -0.10616,-0.15414 -0.0331,-0.50436 c -0.0457,-0.69607 -0.0466,-8.63399 -9e-4,-9.11326 0.0284,-0.29858 0.043,-0.35741 0.11402,-0.45991 0.16759,-0.24183 0.39508,-0.33333 0.9153,-0.36812 0.88502,-0.0592 1.29715,0.0995 1.42037,0.5468 0.0452,0.16392 0.0721,9.00385 0.0292,9.549 -0.0335,0.42476 -0.0926,0.55905 -0.32619,0.74039 -0.25167,0.19544 -0.43235,0.24656 -0.91068,0.25768 -0.22334,0.005 -0.43879,-9e-4 -0.47877,-0.0145 z"
         id="path15" /><path
         style="fill:#ffcc00;fill-opacity:1;stroke-width:0.0290053"
         d="m 459.26029,578.47931 c -0.16188,-0.0457 -0.34195,-0.20606 -0.51545,-0.4591 l -0.11328,-0.16518 9.1e-4,-2.72084 c 6.2e-4,-1.49647 0.0127,-2.96854 0.0267,-3.27129 0.024,-0.51526 0.0297,-0.55373 0.0892,-0.60186 0.0886,-0.0718 0.25387,-0.0647 0.51188,0.0219 0.2549,0.0855 0.72863,0.31505 0.91487,0.44319 0.18979,0.13058 0.22693,0.20459 0.25522,0.50861 0.0396,0.42632 0.0639,3.74929 0.0347,4.74766 -0.0239,0.81595 -0.033,0.92857 -0.0848,1.04567 -0.0796,0.1798 -0.21779,0.32968 -0.37374,0.40517 -0.16544,0.0801 -0.54301,0.10338 -0.74627,0.0461 z"
         id="path16" /><path
         style="fill:#ffcc00;fill-opacity:1;stroke-width:0.0290053"
         d="m 464.54866,590.17378 c -0.63015,-0.0131 -1.21424,-0.0312 -1.298,-0.0404 l -0.15227,-0.0166 v -1.0566 -1.05661 h 1.50635 1.50635 l 0.009,1.08045 c 0.005,0.59424 0.009,1.08189 0.009,1.08365 0,0.0227 -0.6559,0.0252 -1.58079,0.006 z"
         id="path17" /><path
         style="fill:#ffcc00;fill-opacity:1;stroke-width:0.0290053"
         d="m 462.75509,587.37979 c -0.0837,-0.0916 -0.14785,-0.17084 -0.14256,-0.17613 0.005,-0.005 0.58992,0.002 1.29919,0.015 1.3696,0.0262 1.45442,0.0352 1.65225,0.17604 0.0667,0.0475 0.0827,0.0737 0.0593,0.0971 -0.0222,0.0222 -0.44677,0.0356 -1.37403,0.0433 l -1.34196,0.0112 z"
         id="path18" /><path
         style="fill:#ffcc00;fill-opacity:1;stroke-width:0.0290053"
         d="m 462.39501,589.86924 -0.22479,-0.10438 v -1.11262 c 0,-0.61194 0.007,-1.11262 0.0167,-1.11262 0.009,0 0.11365,0.0791 0.23205,0.17589 l 0.21525,0.1759 v 1.04233 c 0,0.57328 -0.004,1.04177 -0.007,1.0411 -0.004,-6.8e-4 -0.1084,-0.0482 -0.23204,-0.1056 z"
         id="path19" /><path
         style="fill:#ffcc00;fill-opacity:1;stroke-width:0.0205098"
         d="m 469.36582,590.24213 c -0.0677,-0.0102 -0.15274,-0.0235 -0.18901,-0.0295 l -0.066,-0.0109 0.01,-0.36326 c 0.005,-0.19979 0.0191,-0.76473 0.0302,-1.25543 0.0111,-0.4907 0.0261,-0.96763 0.033,-1.05985 0.0127,-0.16647 0.0131,-0.16754 0.0618,-0.14902 0.027,0.0102 0.16007,0.089 0.29575,0.17493 l 0.24669,0.1563 -0.006,1.19256 c -0.006,1.14486 -0.008,1.19584 -0.0472,1.27459 -0.0392,0.0784 -0.0455,0.0822 -0.14357,0.0852 -0.0564,0.002 -0.15792,-0.005 -0.2256,-0.0156 z"
         id="path20" /></g></g></svg>
