<?xml version="1.0" encoding="UTF-8" standalone="no"?>
<!-- Created with Inkscape (http://www.inkscape.org/) -->

<svg
   width="148mm"
   height="210mm"
   viewBox="0 0 559.37006 793.70081"
   version="1.1"
   id="svg1"
   xml:space="preserve"
   inkscape:version="1.4.3 (0d15f75, 2025-12-25)"
   sodipodi:docname="WIP.svg"
   xmlns:inkscape="http://www.inkscape.org/namespaces/inkscape"
   xmlns:sodipodi="http://sodipodi.sourceforge.net/DTD/sodipodi-0.dtd"
   xmlns="http://www.w3.org/2000/svg"
   xmlns:svg="http://www.w3.org/2000/svg"><sodipodi:namedview
     id="namedview1"
     pagecolor="#ffffff"
     bordercolor="#000000"
     borderopacity="0.25"
     inkscape:showpageshadow="2"
     inkscape:pageopacity="0.0"
     inkscape:pagecheckerboard="0"
     inkscape:deskcolor="#d1d1d1"
     inkscape:document-units="mm"
     inkscape:zoom="0.68957344"
     inkscape:cx="99.336773"
     inkscape:cy="448.82819"
     inkscape:window-width="1920"
     inkscape:window-height="1009"
     inkscape:window-x="-8"
     inkscape:window-y="-8"
     inkscape:window-maximized="1"
     inkscape:current-layer="layer1" /><defs
     id="defs1" /><g
     inkscape:label="Calque 1"
     inkscape:groupmode="layer"
     id="layer1"
     transform="matrix(1.1047827,0,0,1.1047827,-43.412015,-71.229924)"><g
       id="g5"
       transform="translate(-0.72508594,9.4261172)"><path
         style="fill:#343434;fill-opacity:1;stroke-width:7.7972"
         d="m 244.17593,304.79704 c -4.00851,-7.22131 -8.4264,-15.201 -9.81756,-17.73267 -12.96232,-23.58886 -30.72139,-55.86326 -32.16676,-58.45809 -11.77785,-21.14475 -25.86051,-46.92588 -25.86051,-47.34296 0,-0.29053 6.3733,-0.52821 14.1629,-0.52821 h 14.16287 v -2.18577 c 0,-2.36517 1.89386,-8.3186 4.2832,-13.46443 2.31291,-4.98121 11.93456,-14.06484 18.10332,-17.09102 5.12963,-2.51639 6.18793,-2.68934 16.44721,-2.6876 10.57926,0.003 11.16425,0.10659 16.63612,2.97887 3.11921,1.63736 7.0797,4.22291 8.80112,5.74567 1.72137,1.52277 3.39656,2.76868 3.72261,2.76868 0.32597,0 0.47732,-5.07483 0.3362,-11.27736 l -0.25655,-11.27735 -36.32096,-0.24072 -36.32096,-0.24071 v 12.43868 12.43865 h -12.33539 -12.33541 v -24.3959 -24.39589 h 109.64817 109.64816 v 24.39589 24.3959 H 382.3783 370.04287 v -12.43906 -12.43868 l -36.32095,0.24072 -36.32097,0.24071 -0.25654,11.27734 c -0.14115,6.20254 -0.006,11.27735 0.30313,11.27735 0.30782,0 2.30227,-1.43869 4.43219,-3.1971 2.12991,-1.75841 6.31091,-4.34759 9.29112,-5.75375 4.93967,-2.33069 6.34728,-2.55656 15.92652,-2.55573 10.10561,8.9e-4 10.7427,0.11971 16.639,3.10016 6.67221,3.37277 14.93107,11.27299 17.45374,16.69585 2.38625,5.12957 4.28413,11.09254 4.28413,13.46042 v 2.18576 h 14.16288 c 7.7896,0 14.16291,0.23682 14.16291,0.52622 0,0.28944 -7.45603,14.06392 -16.56892,30.60996 -9.11294,16.54604 -18.14352,32.98358 -20.068,36.5279 -1.92446,3.54431 -11.26855,20.5294 -20.76461,37.74462 l -17.26556,31.3004 -33.83441,0.24115 -33.8344,0.24114 z m 29.01105,-23.31058 v -11.45318 h 11.87857 11.87853 v 11.35406 c 0,6.24474 0.1842,11.53969 0.40947,11.76655 0.2252,0.22681 1.98248,0.26117 3.90516,0.0757 3.82308,-0.36728 2.46446,1.69585 19.78872,-30.05103 1.94935,-3.57218 8.22105,-14.92862 13.9371,-25.23656 5.71607,-10.30789 9.75963,-18.49683 8.98573,-18.19761 -11.86587,4.58756 -23.99682,4.43721 -33.78705,-0.41875 -3.41738,-1.69499 -7.64613,-4.44318 -9.39719,-6.10705 -1.75106,-1.66386 -3.33183,-3.02523 -3.5128,-3.02523 -0.18085,0 -0.32904,3.93557 -0.32904,8.7457 v 8.74569 h -11.87857 -11.87857 v -8.28535 c 0,-4.55697 -0.20204,-8.2854 -0.44896,-8.2854 -0.24693,0 -2.40563,1.51262 -4.79711,3.36138 -7.14786,5.5257 -13.346,7.8522 -22.16597,8.32001 -7.32245,0.38837 -9.35182,0.0706 -19.05432,-2.98358 l -2.1502,-0.67682 2.22213,3.58448 c 1.22215,1.97143 3.6694,6.27719 5.4383,9.56836 1.76889,3.29114 7.44967,13.64788 12.62397,23.015 5.17428,9.3671 10.54787,19.10243 11.94131,21.63409 8.80632,15.99966 8.53025,15.62337 11.858,16.16256 1.73924,0.28182 3.47061,0.36094 3.84755,0.17586 0.37688,-0.18511 0.68527,-5.49044 0.68527,-11.78968 z m -18.09944,-70.15123 c 5.98704,-2.66824 12.14422,-8.7223 15.07091,-14.81845 2.10599,-4.38668 2.48402,-6.34047 2.43003,-12.55959 -0.078,-8.96828 -2.11254,-14.18851 -8.00335,-20.53359 -5.68575,-6.12419 -11.29565,-8.78871 -19.42639,-9.22686 -12.1551,-0.65504 -21.7672,4.73454 -27.62774,15.49112 -3.01341,5.53092 -3.26077,6.57627 -3.26753,13.80902 -0.008,9.29507 1.82134,14.12194 7.85398,20.71574 6.32854,6.91725 13.43137,9.83098 22.75848,9.33606 3.38272,-0.17957 7.79269,-1.13538 10.21161,-2.21345 z m 83.97436,-0.41798 c 6.12533,-2.8586 11.06608,-7.66512 14.28735,-13.8991 2.13633,-4.13433 2.47188,-5.88806 2.49919,-13.06096 0.0296,-7.80386 -0.15852,-8.63319 -3.23851,-14.2693 -5.52743,-10.11465 -14.71295,-15.65021 -25.96946,-15.65021 -7.85111,0 -13.36198,2.15995 -19.18038,7.5176 -6.91594,6.36823 -9.88402,12.90248 -9.96663,21.9416 -0.0917,10.00457 3.25003,17.23175 10.87915,23.53023 8.71642,7.1961 20.4251,8.6803 30.68929,3.89014 z"
         id="path1"
         sodipodi:nodetypes="cccsscssssssscccccccccccccccccccccssssssscsssssccccccccsscsscsssscccssssscssssssccsscssscssssscssscss" /><circle
         style="fill:#fc8802;fill-opacity:1;stroke-width:6.44759"
         id="path2"
         cx="243.14282"
         cy="195.13548"
         r="13.645106" /><ellipse
         style="fill:#ffffff;fill-opacity:1;stroke-width:3.86342"
         id="path2-16"
         cx="247.06033"
         cy="190.04584"
         rx="8.3544827"
         ry="8.0017748" /><circle
         style="fill:#000000;fill-opacity:0;stroke-width:6.44759"
         id="path2-14"
         cx="258.483"
         cy="170.34818"
         r="13.645106" /><circle
         style="fill:#fc8802;fill-opacity:1;stroke-width:6.44759"
         id="path2-1"
         cx="327.70981"
         cy="195.07169"
         r="13.645106" /><circle
         style="fill:#fc8802;fill-opacity:1;stroke-width:2.39483"
         id="path2-1-1"
         cx="314.62897"
         cy="243.40904"
         r="5.068182" /><ellipse
         style="fill:#ffffff;fill-opacity:1;stroke-width:3.86255"
         id="path2-1-2"
         cx="332.30389"
         cy="190.1553"
         rx="8.425024"
         ry="7.9312325" /><path
         style="fill:#fc8802;fill-opacity:1;stroke-width:7.7972"
         d="m 254.85678,238.50633 c 3.95953,4.0813 3.95953,4.20318 3.95953,4.20318 l 3.28944,2.74118 2.37571,1.76652 1.70563,1.09654 2.37571,1.34009 2.55845,1.40108 2.92397,0.85284 2.31478,1.03558 c 0,0 8.75131,1.03557 13.03595,0.30489 0.96286,-0.16423 1.83285,-0.67651 2.74121,-1.0356 0.93978,-0.37151 1.88714,-0.72835 2.80213,-1.1574 1.14308,-0.53601 3.35034,-1.76652 3.35034,-1.76652 l 2.80214,-1.70566 3.04578,-2.37573 6.70072,7.61444 -2.98486,2.55851 -2.37572,1.46197 -3.65493,1.94929 -4.93419,2.13208 -5.36057,2.07109 -15.47256,-0.0622 -5.54333,-1.70567 -3.65495,-1.52285 -4.14225,-2.43663 -4.20318,-2.31485 -5.54334,-4.68931 -4.02041,-3.77681 -1.64474,-1.9493 z"
         id="path8"
         sodipodi:nodetypes="cccccccccssscccccccccccccccccc" /></g><rect
       style="fill:none"
       id="rect2"
       width="29.440651"
       height="105.07679"
       x="269.27423"
       y="324.08652" /><path
       style="fill:#343434;fill-opacity:1"
       d="m 205.68705,741.10482 c -1.49134,-1.04458 -2.08155,-2.35421 -1.87131,-4.15234 0.25193,-2.15476 2.28288,-3.83192 11.30709,-9.33738 6.05,-3.69096 11.93621,-7.37897 13.08047,-8.19558 l 2.08046,-1.48474 -3.76534,-14.68274 c -2.07094,-8.07551 -4.01689,-14.93428 -4.32434,-15.24173 -1.59205,-1.59205 -4.63231,3.6645 -6.14746,10.62885 -0.91336,4.19828 -2.67094,11.90823 -3.90572,17.13323 l -2.24505,9.5 -6.62593,0.66635 c -3.64427,0.36649 -7.86819,0.32462 -9.38651,-0.093 -3.85186,-1.05958 -4.62429,3.59809 9.20441,-55.50232 3.59425,-15.36095 6.53501,-29.11103 6.53501,-30.55572 0,-1.44469 -2.89643,-14.30163 -6.43651,-28.57099 -19.87054,-80.09418 -20.86562,-84.48577 -19.71541,-87.01019 1.39163,-3.0543 3.98115,-3.1215 13.49668,-0.35021 12.00224,3.49552 26.22419,7.49654 46.15524,12.98472 3.85,1.06013 13.29476,3.72838 20.98835,5.92945 7.69359,2.20108 14.33109,4.00195 14.75,4.00195 0.41891,0 0.76165,-6.97312 0.76165,-15.49581 V 515.7808 l -115.75,-0.25418 -115.749998,-0.25419 -0.286212,-9.75 -0.286212,-9.75 h 27.036212 27.03621 v -6.48422 c 0,-5.72564 0.33554,-6.85976 2.86812,-9.69421 2.56229,-2.8677 3.56187,-3.25416 9.37422,-3.62426 l 6.50609,-0.41428 1.22906,-4.14151 c 0.67598,-2.27784 1.68768,-4.70402 2.24823,-5.39152 1.16747,-1.43189 18.42552,-1.75764 20.58435,-0.38854 0.72054,0.45696 1.89279,2.81257 2.60499,5.23469 0.92003,3.12891 1.88769,4.49267 3.34244,4.71063 1.69232,0.25355 2.167,-0.40042 2.73625,-3.76982 1.07721,-6.37592 2.30354,-7.03696 13.05462,-7.03696 10.42242,0 11.44481,0.61266 12.93292,7.75 1.03516,4.96483 4.13155,4.40971 5.57794,-1 1.74666,-6.53279 2.14478,-6.75 12.37208,-6.75 10.59551,0 12.17163,0.76787 13.34171,6.5 l 0.8165,4 h 17.35539 17.35539 l 1.88912,-5.81842 c 1.85177,-5.70338 1.85179,-5.88133 0.001,-9 -1.0383,-1.74987 -2.94473,-5.85898 -4.2365,-9.13135 l -2.34867,-5.94977 -1.20706,2.95816 c -1.99842,4.89759 -4.64323,6.50062 -12.52803,7.59328 -8.49141,1.17673 -11.34345,0.87264 -18.87046,-2.012 -6.79938,-2.60579 -9.51627,-5.59405 -10.30271,-11.33175 -0.33435,-2.43932 -2.00537,-7.09176 -3.71339,-10.33875 -2.26535,-4.3065 -3.03313,-6.99466 -2.83803,-9.93651 0.30855,-4.65249 1.08163,-4.50522 -11.64587,-2.21849 -22.31252,4.00885 -50.38666,5.887 -54.56574,3.65042 -1.17593,-0.62934 -1.93426,-2.0891 -1.93426,-3.72336 0,-7.8941 35.7519,-32.15933 75.75574,-51.4163 8.94066,-4.30384 16.48306,-7.82516 16.7609,-7.82516 0.27784,0 2.41275,-0.87133 4.74426,-1.9363 11.2347,-5.13168 36.15845,-14.94832 48.4891,-19.09826 l 10.25,-3.44967 c 0,-19.28985 6.65345,-52.19474 10.5,-0.0892 l 4,0.88149 c 7.33969,1.61745 26.92553,6.45902 33,8.15752 19.68958,5.50544 25.40876,7.16499 38.5,11.17162 26.67837,8.16502 61.76732,21.10609 68.75,25.35552 3.60455,2.1936 4.16325,4.89105 1.5,7.24214 -4.03533,3.56235 -30.75089,15.3532 -44.75,19.7503 -5.40386,1.69735 -6.00714,2.45267 -4.11573,5.15303 2.31436,3.30421 1.94498,8.72585 -0.91036,13.36176 -1.4841,2.40959 -2.4657,5.51716 -2.46879,7.81574 -0.008,5.78932 -1.48916,7.52612 -9.69838,11.37052 -7.3897,3.46063 -7.71092,3.51663 -16.14223,2.8143 -10.64388,-0.88663 -12.66727,-1.63457 -15.05829,-5.56628 l -1.89469,-3.11558 -2.07649,5.54992 c -2.8984,7.74667 -3.53204,10.63138 -2.33522,10.63138 0.55915,0 1.82939,3.6 2.82276,8 1.65981,7.35199 3.37742,10.51648 3.37742,6.22251 0,-0.97762 0.70052,-2.77762 1.5567,-4 1.41866,-2.02542 2.38036,-2.22251 10.84502,-2.22251 10.38492,0 11.70752,0.69471 13.32665,7 1.33439,5.19641 4.20099,4.72557 6.08824,-1 0.8158,-2.475 1.9783,-4.83061 2.58333,-5.23469 0.60503,-0.40407 5.15006,-0.73468 10.10006,-0.73468 4.95,0 9.48331,0.33061 10.07403,0.73468 0.59072,0.40408 1.6617,2.87219 2.37996,5.48469 1.53204,5.57242 4.61348,6.67881 5.57026,2 0.30929,-1.5125 1.12149,-3.875 1.80489,-5.25 1.18767,-2.38958 1.69177,-2.51256 11.41318,-2.7845 l 10.17063,-0.2845 1.40319,2.7845 c 0.77175,1.53148 1.69991,4.022 2.06257,5.5345 1.02955,4.29376 4.22876,3.6658 5.09461,-1 1.17919,-6.35426 2.69236,-7.25 12.24741,-7.25 4.62591,0 9.27829,0.46429 10.33861,1.03176 1.09561,0.58635 2.41356,2.96068 3.05297,5.5 1.09236,4.33813 1.23907,4.46824 5.03852,4.46824 5.383,0 10.61206,2.3855 12.02457,5.48561 1.14442,2.51174 1.42059,2.5809 9.19252,2.30196 l 8.01265,-0.28757 3.44777,-10 c 11.9874,-34.76861 22.18541,-64.56819 27.89093,-81.5 3.614,-10.725 7.01533,-20.06805 7.5585,-20.76233 1.70754,-2.18257 3.69235,0.40843 2.7305,3.56444 -0.80578,2.64393 -19.74856,58.03068 -28.62545,83.69789 -9.53751,27.57738 -10.4897,30.73741 -10.1909,33.82085 l 0.30808,3.17915 13.25,0.27903 13.25,0.27902 v 9.97098 9.97097 h -118.5 -118.5 v 15.61663 15.61663 l 2.25,-0.65502 c 1.2375,-0.36027 5.4,-1.49985 9.25,-2.53241 3.85,-1.03255 12.175,-3.30318 18.5,-5.04583 6.325,-1.74265 14.875,-4.07167 19,-5.17561 4.125,-1.10394 10.425,-2.79324 14,-3.75401 38.94194,-10.46553 39.12073,-10.48776 39.79449,-4.94679 0.16197,1.33203 -2.68837,10.96164 -6.33409,21.39914 -3.64572,10.4375 -8.8029,25.27727 -11.4604,32.97727 -2.65751,7.7 -7.85153,22.55 -11.54227,33 -3.69075,10.45 -7.16242,20.83829 -7.71483,23.08508 -1.01694,4.13618 -0.72048,5.75249 6.77088,36.91492 4.10424,17.07275 10.50614,45.5191 11.0838,49.25 l 0.65804,4.25 h -9.5194 c -9.05231,0 -9.54474,-0.1104 -10.03578,-2.25 -7.8352,-34.14024 -7.64065,-33.53458 -11.84098,-36.8613 -2.17343,-1.72139 -4.15696,-2.92453 -4.40785,-2.67365 -0.37739,0.3774 -11.45161,31.56868 -11.45161,32.25423 0,0.11962 6.31495,3.30672 14.03323,7.08244 10.5363,5.15427 14.17074,7.41279 14.58504,9.06347 0.77844,3.10156 -1.25576,6.39682 -3.90345,6.32335 -1.21815,-0.0338 -9.63982,-3.7463 -18.71482,-8.25 -14.75536,-7.32271 -16.53299,-8.47448 -16.81201,-10.89284 -0.1758,-1.52368 2.77106,-11.30438 6.75,-22.40342 3.8841,-10.83451 7.06201,-19.81503 7.06201,-19.95671 0,-0.14167 -9.89641,-8.20979 -21.99202,-17.92915 -12.09561,-9.71936 -22.24716,-18.08441 -22.55901,-18.58899 -0.31185,-0.50459 -1.21519,-0.91743 -2.00742,-0.91743 -1.06532,0 -47.19559,35.61817 -51.61596,39.85378 -0.37092,0.35542 1.39946,8.52122 3.93419,18.14622 2.53473,9.625 4.63821,19.43824 4.67441,21.80719 l 0.0658,4.3072 -14,8.55114 c -16.98777,10.37606 -17.61552,10.64229 -20.43578,8.6669 z m 1.78247,-23.08243 c 3.13169,-12.71273 10.27359,-44.20868 10.39046,-45.82217 0.17728,-2.44726 -4.49253,-22.42783 -5.24177,-22.42783 -0.30761,0 -2.04658,6.4125 -3.86438,14.25 -9.69877,41.81652 -13.131,56.83284 -13.131,57.44935 0,0.16536 2.45765,0.30065 5.46145,0.30065 h 5.46146 z m 158.45758,-11 c -1.86263,-8.1125 -5.37033,-23.3 -7.7949,-33.75 -2.42457,-10.45 -4.70613,-20.6875 -5.07013,-22.75 -0.364,-2.0625 -0.98386,-3.75 -1.37745,-3.75 -0.3936,0 -1.97438,3.61594 -3.51284,8.03542 -3.00761,8.6398 -3.01985,12.65989 -0.0715,23.46458 0.75042,2.75 3.30247,13.6625 5.67124,24.25 l 4.30684,19.25 h 5.61766 5.61765 z m -21.81929,-28.5 c -0.93426,-5.74767 -2.00618,-6.5596 -3.40056,-2.57576 -1.04013,2.97168 -0.93509,3.51208 0.98654,5.07576 3.02096,2.45823 3.19128,2.28184 2.41402,-2.5 z m -91.27848,-21.16283 c 11.93858,-9.57705 22.72403,-18.12553 23.96767,-18.99661 1.97496,-1.38332 2.0754,-1.7587 0.7935,-2.96565 -3.29957,-3.10666 -38.17665,-30.62491 -38.81452,-30.62491 -0.37931,0 -3.08697,10.4625 -6.01703,23.25 -2.93005,12.7875 -5.77702,24.73611 -6.32661,26.55246 -0.74744,2.47027 -0.57656,5.11616 0.67815,10.5 2.1633,9.28259 2.30155,9.69754 3.23095,9.69754 0.42977,0 10.54931,-7.83578 22.48789,-17.41283 z m 81.79641,5.66283 3.19205,-8.75 -2.0462,-9.5 c -1.12541,-5.225 -3.21676,-14.45 -4.64743,-20.5 -1.43068,-6.05 -2.92871,-12.8 -3.32896,-15 -0.40025,-2.2 -1.29482,-4 -1.98793,-4 -1.9124,0 -39.15449,29.82955 -38.90338,31.16018 0.22524,1.19355 42.57476,35.33982 43.82982,35.33982 0.38498,0 2.1364,-3.9375 3.89203,-8.75 z m -108.45068,-24.75 c 0.98589,-4.4 4.59596,-19.925 8.02237,-34.5 3.4264,-14.575 5.88661,-26.86472 5.46712,-27.31049 -0.41948,-0.44577 -2.92191,-0.67077 -5.56096,-0.5 l -4.79825,0.31049 -2.83009,12 c -1.55655,6.6 -4.20218,18.0969 -5.87917,25.54867 l -3.04908,13.54867 2.01806,8.45133 c 3.07273,12.86815 3.24696,13.37221 4.08406,11.81534 0.40337,-0.7502 1.54004,-4.96401 2.52594,-9.36401 z m 118.04439,-2.25 c 2.58195,-7.38194 2.91691,-9.3754 2.14239,-12.75 -3.97877,-17.33556 -9.91608,-43.41089 -10.30334,-45.25 -0.42156,-2.00203 -1.07782,-2.25 -5.95472,-2.25 -3.11491,0 -5.48095,0.44731 -5.48095,1.03619 0,0.5699 0.88031,4.7324 1.95626,9.25 1.07594,4.5176 3.06979,13.16381 4.43078,19.21381 6.57175,29.21335 9.06793,39.5 9.58515,39.5 0.31018,0 1.94117,-3.9375 3.62443,-8.75 z m -39.59662,-20.00937 19.5,-15.80273 -0.27589,-4.96895 c -0.15173,-2.73292 -1.0803,-8.11895 -2.06348,-11.96895 l -1.7876,-7 -37.57588,-0.26192 -37.57587,-0.26191 -1.66743,7.26191 c -2.83801,12.36 -3.55385,15.62686 -3.55385,16.21859 0,0.31406 9.55331,8.17534 21.22957,17.4695 16.00717,12.74151 21.60359,16.67938 22.75,16.00784 0.83624,-0.48985 10.29543,-8.00187 21.02043,-16.69338 z m 60.51823,-39.74063 c 3.65129,-10.45 8.40706,-23.95 10.56837,-30 2.16131,-6.05 3.926,-11.50151 3.92153,-12.11447 -0.008,-1.08625 -9.1019,0.96105 -32.00813,7.20589 -16.2378,4.42685 -26.17667,7.11246 -35,9.45743 -4.675,1.24248 -8.9275,2.63977 -9.45,3.1051 -0.5225,0.46533 10.77931,0.84605 25.11514,0.84605 24.61835,0 26.20738,0.11188 28.62761,2.01564 3.57071,2.80872 5.25652,8.24409 3.71283,11.97088 -2.13235,5.14795 -4.3513,6.30635 -13.04397,6.80956 -6.79449,0.39333 -7.94068,0.71041 -7.5329,2.08392 0.26453,0.891 2.09659,8.82 4.07125,17.62 1.97465,8.8 4.07175,17.8 4.66021,20 l 1.06994,4 4.32471,-12 c 2.37859,-6.6 7.31213,-20.55 10.96341,-31 z m -145.1776,22 c 1.93263,-8.25 3.8217,-16.6875 4.19792,-18.75 l 0.68403,-3.75 H 219.202 c -7.91755,0 -12.28326,-2.04753 -14.21295,-6.66593 -1.26787,-3.03444 -1.34797,-4.45162 -0.42561,-7.53017 1.96027,-6.5428 3.26536,-6.8039 34.00973,-6.8039 14.87731,0 27.0474,-0.3375 27.04463,-0.75 -0.003,-0.4125 -3.94026,-1.8192 -8.75,-3.12601 -4.80973,-1.30681 -15.49497,-4.28774 -23.74497,-6.62428 -8.25,-2.33654 -19.5,-5.46785 -25,-6.95846 -5.5,-1.49061 -10.7875,-2.92751 -11.75,-3.19311 -0.9625,-0.2656 -1.75,-0.0822 -1.75,0.40749 0,0.90481 2.10703,9.48693 13.07225,53.24437 3.37671,13.475 6.3887,25.61404 6.69332,26.97563 0.51299,2.29302 0.60944,2.3299 1.30751,0.5 0.41451,-1.08659 2.33491,-8.72563 4.26755,-16.97563 z m 135.02451,-28.57258 c 5.55965,-4.37322 1.80167,-10.90491 -6.3037,-10.95639 -2.50879,-0.0159 -34.21779,-0.0226 -70.46445,-0.0148 -57.60032,0.0124 -66.19869,0.20796 -68.25,1.55203 -3.29347,2.15797 -3.15431,6.71151 0.28787,9.41912 2.6084,2.05177 3.33509,2.07258 72.36514,2.07258 69.03005,0 69.75674,-0.0208 72.36514,-2.07258 z m 167.63486,-63.92742 v -6 l -19.75,-0.0145 c -10.8625,-0.008 -116.725,-0.011 -235.25,-0.007 l -215.499998,0.008 -0.297718,6.00665 -0.297717,6.00664 H 287.07511 522.62283 Z m -141,-16 0.5,-5.5 46.75,-0.25989 c 25.7125,-0.14293 46.75,-0.61543 46.75,-1.05 0,-3.1656 -1.41531,-3.19011 -184.2,-3.19011 -180.46667,0 -181.81467,0.0147 -183.8,2 -1.5,1.5 -2,3.33334 -2,7.33334 0,2.93333 0.30159,5.63492 0.6702,6.00353 0.36861,0.36861 62.35611,0.55611 137.75,0.41666 l 137.0798,-0.25353 z m 114,1.96779 v -3.96779 h -55 -55 v 4.01531 4.01532 l 55,-0.0475 55,-0.0475 z m -352,-18.26779 c 0,-3.79052 -1.8818,-4.7 -9.72475,-4.7 -6.94251,0 -7.37565,0.13386 -8.3,2.5651 -0.53639,1.41081 -0.97525,2.98581 -0.97525,3.5 0,0.51426 4.27434,0.9349 9.5,0.9349 9.24638,0 9.5,-0.0614 9.5,-2.3 z m 31.52912,-0.43998 c -0.94436,-3.76265 -2.01711,-4.2271 -9.80387,-4.24471 -6.3584,-0.0144 -6.83469,0.14234 -7.75,2.54979 -0.53639,1.41081 -0.97525,2.98581 -0.97525,3.5 0,0.515 4.31551,0.9349 9.60841,0.9349 h 9.6084 z m 31.73283,0.48998 c -1.00621,-4.11022 -2.24169,-4.75061 -9.1344,-4.73469 -7.63659,0.0177 -8.64182,0.47342 -9.33985,4.23469 l -0.51036,2.75 h 9.76771 c 9.62601,0 9.75972,-0.0326 9.2169,-2.25 z m 62.73805,0.68426 c 0,-0.86116 -0.46158,-2.4282 -1.02572,-3.48232 -0.90278,-1.68686 -1.94502,-1.87283 -8.69574,-1.55165 -6.35712,0.30246 -7.79565,0.68457 -8.40399,2.23232 -1.63833,4.16825 -1.24503,4.36739 8.62545,4.36739 7.95506,0 9.5,-0.25463 9.5,-1.56574 z m 9.02475,-0.99936 c 0.97025,-2.55194 1.46395,-126.4349 0.50388,-126.4349 -2.44516,0 -45.99223,17.14378 -63.52863,25.01019 -30.35992,13.61874 -75.34675,39.9764 -72.71792,42.60523 0.84979,0.84978 29.08962,-2.54738 43.06158,-5.18018 7.18683,-1.35424 16.01207,-3.67688 19.61165,-5.16141 5.19445,-2.14229 8.19517,-2.70686 14.54469,-2.73649 l 8,-0.0373 11.48766,6.90091 c 6.31822,3.79549 15.04444,8.62092 19.3916,10.72316 4.34717,2.10224 8.74022,4.57908 9.76234,5.50408 2.55071,2.30836 2.32856,5.57249 -0.59385,8.72583 -2.41648,2.60742 -4.38244,3.15578 -9.79775,2.73285 -1.5125,-0.11812 -2.75,0.22707 -2.75,0.7671 0,0.54002 2.025,5.45942 4.5,10.932 2.68094,5.92793 4.5,11.41831 4.5,13.5821 0,3.17895 0.30292,3.63197 2.42857,3.63197 2.65879,0 5.57143,2.35583 5.57143,4.50633 0,2.78309 1.99995,6.49367 3.5,6.49367 0.85222,0 1.98836,-1.15429 2.52475,-2.5651 z m 22.97525,0.2651 c 0,-3.78375 -1.88413,-4.7 -9.66482,-4.7 -6.15905,0 -7.42238,0.29441 -8.3,1.93426 -2.45636,4.58975 -1.66099,5.06574 8.46482,5.06574 9.24638,0 9.5,-0.0614 9.5,-2.3 z m 8.0847,-8.26498 c 0.87156,-5.00487 1.68693,-6.89451 3.48267,-8.07112 1.28957,-0.84496 2.74794,-1.28706 3.24081,-0.98245 0.49287,0.30461 2.04932,-2.9191 3.45878,-7.1638 1.40945,-4.24471 2.89405,-8.55708 3.29911,-9.58305 0.62028,-1.5711 0.39353,-1.75655 -1.43727,-1.17548 -5.33166,1.6922 -12.1288,-2.42296 -12.1288,-7.34309 0,-3.21666 1.72056,-4.98809 7.82837,-8.05982 2.3806,-1.19725 7.1056,-4.09894 10.5,-6.4482 3.39439,-2.34926 8.87163,-6.13926 12.17163,-8.42222 3.71875,-2.57265 8.45663,-4.77036 12.46129,-5.78026 6.01827,-1.51771 7.02294,-1.51156 14.65276,0.0896 l 8.19146,1.71903 8.84725,-3.01551 c 11.14879,-3.79997 33.44989,-12.9013 34.71698,-14.16839 0.60792,-0.60792 -0.10452,-1.36503 -1.9569,-2.07961 -12.73221,-4.91167 -17.44235,-6.64488 -28.41284,-10.4552 -25.63098,-8.90229 -56.11524,-17.8785 -81.5,-23.99802 -8.25,-1.98883 -15.5625,-3.80024 -16.25,-4.02536 -0.99057,-0.32435 -1.25,11.92325 -1.25,59.0116 v 59.4209 l 6.21631,0.29771 c 6.68438,0.32014 7.15441,0.71399 9.90254,8.29772 1.06488,2.93865 1.10491,2.95368 1.95749,0.73492 0.4787,-1.2458 1.38247,-5.20575 2.00836,-8.7999 z m 27.59253,9.16626 c -0.2952,-0.7693 -1.0769,-4.1443 -1.73709,-7.5 -0.66019,-3.35571 -1.52267,-6.10128 -1.91661,-6.10128 -0.39394,0 -2.21036,0.74536 -4.03649,1.65636 -2.81561,1.40461 -3.78887,1.46322 -6.40364,0.38565 -1.69587,-0.69889 -4.27965,-1.48927 -5.74173,-1.7564 -2.53454,-0.46308 -2.71238,-0.21327 -3.81887,5.36435 -0.6383,3.21752 -1.38487,6.63754 -1.65906,7.60004 -0.45674,1.60334 0.60559,1.75 12.67586,1.75 10.87577,0 13.08073,-0.24404 12.63763,-1.39872 z m 27.32277,-0.16702 c 0,-0.86116 -0.46583,-2.43616 -1.03518,-3.5 -0.882,-1.64803 -2.1435,-1.93426 -8.52476,-1.93426 -7.11942,0 -7.53776,0.12677 -8.46481,2.5651 -0.53639,1.41081 -0.97525,2.98581 -0.97525,3.5 0,0.51426 4.27434,0.9349 9.5,0.9349 7.95506,0 9.5,-0.25463 9.5,-1.56574 z m 31.52912,-1.17424 c -0.94333,-3.75853 -2.01894,-4.22709 -9.74394,-4.24471 -5.62462,-0.0128 -6.88288,0.29873 -7.75,1.91895 -2.46075,4.59796 -1.66909,5.06574 8.57323,5.06574 h 9.6084 z m 31.91588,0.48998 c -1.29128,-4.21204 -2.42038,-4.75 -9.96962,-4.75 -7.26618,0 -7.28178,0.006 -8.37756,3.14923 -0.6038,1.73207 -1.09782,3.30707 -1.09782,3.5 0,0.19292 4.53032,0.35077 10.06739,0.35077 9.97796,0 10.06126,-0.02 9.37761,-2.25 z m 31.555,1.3151 c 0,-0.51419 -0.43886,-2.08919 -0.97525,-3.5 -0.928,-2.44083 -1.34099,-2.5651 -8.52475,-2.5651 -7.18376,0 -7.59675,0.12427 -8.52475,2.5651 -0.53639,1.41081 -0.97525,2.98581 -0.97525,3.5 0,0.51426 4.27434,0.9349 9.5,0.9349 5.22566,0 9.5,-0.42064 9.5,-0.9349 z M 260.44811,461.97864 c 0.37364,-2.63473 -6.93195,-20.59947 -13.61112,-33.47029 -5.06833,-9.7667 -13.35601,-19.62632 -18.58163,-22.10604 -7.92306,-3.75974 -20.61215,-0.6303 -27.42846,6.76452 -6.76568,7.33989 -6.56098,12.12725 0.95402,22.31266 4.04603,5.48374 4.83933,8.2929 2.34191,8.2929 -0.825,0 -1.5,0.41734 -1.5,0.92742 0,1.10882 4.86499,5.07258 6.22592,5.07258 0.54739,0 0.81039,-2.8799 0.61514,-6.73602 -0.29017,-5.73097 -0.0853,-6.78532 1.37321,-7.06644 1.99451,-0.38444 2.64579,1.72496 3.0265,9.80246 l 0.25923,5.5 4.8511,0.30892 4.85111,0.30892 -0.35111,-9.79474 c -0.30908,-8.62254 -0.14594,-9.83431 1.36317,-10.12537 1.88377,-0.3633 2.03837,0.10281 3.83058,11.54873 0.62406,3.98555 1.57758,7.52019 2.11893,7.85476 0.54135,0.33458 2.12603,-0.45133 3.52152,-1.74645 2.48572,-2.30695 2.52378,-2.55443 1.87445,-12.18801 -0.59374,-8.80885 -0.49119,-9.79853 0.98434,-9.5 1.04605,0.21163 3.07315,3.98254 5.55479,10.33324 8.14019,20.83143 11.62847,26.82457 15.30725,26.29909 1.305,-0.1864 2.21642,-1.16327 2.41915,-2.59284 z m 68.49134,-4.45625 c 1.65332,-1.53201 4.26599,-7.61029 8.18751,-19.04795 4.4556,-12.99538 6.11828,-16.72883 7.34492,-16.4926 1.3322,0.25656 1.53705,1.70939 1.2819,9.09168 -0.32985,9.5437 1.12989,13.69887 4.81251,13.69887 1.60949,0 1.99911,-1.02407 2.56811,-6.75 0.92998,-9.35863 1.87477,-12.75 3.552,-12.75 1.15281,0 1.43643,1.97446 1.43643,10 v 10 l 2.87083,0.32808 c 1.57895,0.18045 3.92332,0.0639 5.2097,-0.25893 2.18302,-0.54791 2.35822,-1.13543 2.62917,-8.81703 0.2436,-6.90604 0.57182,-8.28379 2.0403,-8.56438 1.53324,-0.29297 1.75,0.54172 1.75,6.73894 0,7.73827 0.78719,8.56133 4.68555,4.89901 2.6227,-2.4639 3.06049,-4.32595 0.81445,-3.46406 -2.63197,1.00998 -1.73281,-4.02403 1.35335,-7.57683 6.27942,-7.22892 6.6248,-10.66113 1.54135,-15.31738 -8.48605,-7.77292 -23.46268,-10.12543 -32.8947,-5.16706 -7.76563,4.08236 -9.14423,5.59761 -13.37401,14.69964 -3.78191,8.13826 -13.12599,31.75551 -13.12599,33.17605 0,0.98154 2.98491,3.82395 4.01566,3.82395 0.48005,0 1.96548,-1.0125 3.30096,-2.25 z m -0.68975,-30.75 c 1.71978,-3.575 2.99479,-6.64999 2.83336,-6.83331 -0.29757,-0.33791 -12.35278,6.57187 -15.88419,9.10446 -1.2431,0.89151 -1.68942,1.99101 -1.26119,3.10697 0.53411,1.39185 1.68422,1.66842 5.92397,1.42453 l 5.26118,-0.30265 z m -65.00668,4.51423 c 1.97595,-0.8256 3.38332,-2.04751 3.16741,-2.75 -0.39379,-1.2813 -17.31275,-10.59291 -19.44871,-10.7039 -2.27448,-0.11818 6.03961,12.19387 9.14936,13.54898 3.74934,1.63382 2.9692,1.64423 7.13194,-0.0951 z"
       id="path5"
       sodipodi:nodetypes="cssscsssscssssssssssscccccccssscssssssssssscccscscsssssssssssssccsssssssscssscssssssssssssssscssssssssscsssssscccccccccsssssssssssscsssssssssssssssssscsccsssssscsssssssscccssssssssssssssscssssssssssscsscssssssssssssscsscccsssssssssssssssssscsssscsssscsssssssssssssssssccscccccccccssssssscccccccccccssssssssssscsssscssssssssssssssscsssssssssssssssssssssssssssssscssssssscssssssssssssssssssssssssscssssssssssssssssssssssssscccsssssssssssssssssscssssssssssssssssssscsssssss" /></g></svg>
